<svg width="137" height="137" viewBox="0 0 137 137" fill="none" xmlns="http://www.w3.org/2000/svg">
<path d="M23.9648 4.55469L24.2969 8.82617L21.0352 11.6094L25.2148 12.6191L26.8555 16.5742L29.1016 12.9258L33.3594 12.584L30.5859 9.32031L31.582 5.15625L27.6172 6.78711L23.9648 4.55469ZM90.625 6.25C89.7962 6.25 89.0014 6.57924 88.4153 7.16529C87.8292 7.75134 87.5 8.5462 87.5 9.375C87.5 10.2038 87.8292 10.9987 88.4153 11.5847C89.0014 12.1708 89.7962 12.5 90.625 12.5C91.4538 12.5 92.2487 12.1708 92.8347 11.5847C93.4208 10.9987 93.75 10.2038 93.75 9.375C93.75 8.5462 93.4208 7.75134 92.8347 7.16529C92.2487 6.57924 91.4538 6.25 90.625 6.25ZM46.8359 8.30078C46.0071 8.30078 45.2123 8.63002 44.6262 9.21607C44.0402 9.80212 43.7109 10.597 43.7109 11.4258C43.7109 12.2546 44.0402 13.0494 44.6262 13.6355C45.2123 14.2215 46.0071 14.5508 46.8359 14.5508C47.6647 14.5508 48.4596 14.2215 49.0457 13.6355C49.6317 13.0494 49.9609 12.2546 49.9609 11.4258C49.9609 10.597 49.6317 9.80212 49.0457 9.21607C48.4596 8.63002 47.6647 8.30078 46.8359 8.30078ZM82.7539 9.63672C80.957 9.97656 79.2969 11.0391 77.6953 12.4258C76.2109 13.7012 74.8242 15.2891 73.6524 17.0059C69.9805 17.5937 66.3086 19.0898 63.8477 21.1328C60.7031 23.7109 57.9102 28.125 56.3867 32.6758C54.9414 33.2812 53.5742 34.0039 52.4609 34.7852C49.4336 36.9141 47.8711 40.9961 46.7188 44.5508C45.5664 48.125 45 51.25 45 51.25L48.4766 51.875C48.4766 51.875 49.0039 48.9453 50.0586 45.6445C51.1328 42.3438 52.9492 38.75 54.4922 37.6758C54.7461 37.5 55.0781 37.3047 55.3711 37.1289C55.2539 38.2422 55.2539 39.3555 55.4297 40.4102C55.7812 42.6367 56.9922 44.7656 59.1406 45.918C60.6641 46.7383 62.3828 46.543 63.8281 45.957C65.2734 45.3516 66.5625 44.3555 67.6758 43.1836C68.7891 42.0117 69.707 40.625 70.2539 39.1602C70.8008 37.6953 70.9961 36.0352 70.293 34.4922H70.2734C69.5117 32.8516 68.0469 31.7969 66.4844 31.3477C64.9219 30.8984 63.2422 30.918 61.5625 31.1719C61.2695 31.2109 60.9961 31.3086 60.7031 31.3672C62.1484 28.2812 64.2188 25.3711 66.0742 23.8281C67.2852 22.832 69.3164 21.875 71.4844 21.1719C71.2109 21.9141 70.9961 22.6562 70.8984 23.418C70.5859 25.4687 71.0352 27.6953 72.6758 29.2188C73.8672 30.3125 75.4688 30.4883 76.875 30.2539C78.2617 30.0195 79.6094 29.3945 80.8203 28.5937C82.0313 27.7734 83.1055 26.7578 83.8672 25.5664C84.6289 24.375 85.1367 22.8516 84.6484 21.3281V21.3086C84.0039 19.3418 82.4024 17.9902 80.625 17.3496C79.8633 17.0762 79.0625 16.9219 78.2422 16.8301C78.8086 16.1934 79.3945 15.5977 79.9805 15.0879C81.3086 13.9473 82.6563 13.2324 83.418 13.0898L82.7539 9.63672ZM34.1406 16.4824L31.1719 18.3496L37.9102 29.1406L26.8945 29.707L32.0703 40.9961L35.2734 39.5117L32.2461 32.9492L44.082 32.3437L34.1406 16.4824ZM76.4063 20.2539C77.5977 20.2344 78.6524 20.3711 79.4336 20.6641C80.4883 21.0352 81.0156 21.5039 81.2891 22.3828C81.3672 22.5977 81.3281 23.0273 80.918 23.6719C80.4883 24.3359 79.7266 25.0781 78.8672 25.6641C77.9883 26.25 77.0117 26.6602 76.2891 26.7773C75.5469 26.9141 75.2149 26.7773 75.0586 26.6406C74.375 26.0156 74.1797 25.2344 74.375 23.9258C74.5313 22.8711 75.0195 21.6016 75.7422 20.293C75.9766 20.293 76.1914 20.2539 76.4063 20.2539ZM18.5527 24.0234C17.7239 24.0234 16.9291 24.3527 16.343 24.9387C15.757 25.5248 15.4277 26.3196 15.4277 27.1484C15.4277 27.9772 15.757 28.7721 16.343 29.3581C16.9291 29.9442 17.7239 30.2734 18.5527 30.2734C18.9633 30.2737 19.3699 30.193 19.7492 30.0361C20.1286 29.8792 20.4733 29.649 20.7637 29.3588C21.0541 29.0686 21.2845 28.724 21.4416 28.3448C21.5988 27.9655 21.6797 27.559 21.6797 27.1484C21.6797 26.7379 21.5988 26.3314 21.4416 25.9521C21.2845 25.5728 21.0541 25.2282 20.7637 24.938C20.4733 24.6478 20.1286 24.4177 19.7492 24.2608C19.3699 24.1038 18.9633 24.0232 18.5527 24.0234ZM88.1055 31.2891L85.293 34.5312L81.0352 34.1797L83.2617 37.8516L81.6016 41.7969L85.7813 40.8203L89.0234 43.6133L89.3945 39.3359L93.0469 37.1094L89.1016 35.4492L88.1055 31.2891ZM63.9844 34.5117C64.5508 34.5312 65.0781 34.6094 65.4883 34.7266C66.3281 34.9609 66.7774 35.3125 67.0899 35.9766C67.2656 36.3477 67.2852 37.0312 66.9531 37.9297C66.6211 38.8477 65.9375 39.9023 65.1172 40.7812C64.2969 41.6602 63.3008 42.3633 62.4805 42.6953C61.6602 43.0273 61.1523 43.0078 60.8203 42.832H60.8008C59.668 42.207 59.1211 41.3086 58.9063 39.8633C58.7109 38.6328 58.8477 37.0703 59.2578 35.3906C60.2148 35.0586 61.1719 34.7852 62.0898 34.6484C62.7734 34.5508 63.3984 34.5117 63.9844 34.5117ZM24.4531 44.6484C23.0469 44.6094 22.168 44.9414 21.6211 45.4883C21.0742 46.0351 20.7422 46.9141 20.7813 48.3203C20.8203 49.7461 21.2891 51.6211 22.1875 53.7109C23.9844 57.9102 27.5195 62.9687 32.2656 67.7344C37.0117 72.4805 42.0898 75.9961 46.2891 77.793C48.3594 78.6914 50.2344 79.1601 51.6602 79.1992C53.0859 79.2578 53.9453 78.9062 54.4922 78.3594C55.0391 77.8125 55.3906 76.9531 55.332 75.5273C55.293 74.1016 54.8242 72.2266 53.9258 70.1367C52.1289 65.957 48.6133 60.8789 43.8672 56.1328C39.1211 51.3672 34.043 47.8516 29.8438 46.0547C27.7539 45.1562 25.8789 44.6875 24.4531 44.6484ZM69.7656 50.7617L63.3203 61.3086L57.6367 55.8594L55.2148 58.3984L64.0234 66.8555L70.625 56.0742L78.1836 62.3828L95.625 54.9219L94.2578 51.6797L78.7695 58.3203L69.7656 50.7617ZM18.248 53.2422L14.8027 64.5508C22.8906 74.1406 32.3242 79.5312 42.5586 83.0469L46.7773 81.7578C46.1719 81.543 45.5273 81.2891 44.8828 81.0156C40.1172 78.9844 34.7852 75.2344 29.7852 70.2148C24.7656 65.1953 21.0156 59.8633 18.9766 55.0977C18.7012 54.4727 18.459 53.8477 18.248 53.2422ZM13.5957 68.5156L10.8594 77.5C16.502 82.7734 22.3828 85.1562 28.5547 87.3047L37.0313 84.7266C28.5938 81.2891 20.625 76.2695 13.5957 68.5156ZM71.875 68.75C71.0462 68.75 70.2514 69.0792 69.6653 69.6653C69.0792 70.2513 68.75 71.0462 68.75 71.875C68.75 72.7038 69.0792 73.4986 69.6653 74.0847C70.2514 74.6708 71.0462 75 71.875 75C72.7038 75 73.4987 74.6708 74.0847 74.0847C74.6708 73.4986 75 72.7038 75 71.875C75 71.0462 74.6708 70.2513 74.0847 69.6653C73.4987 69.0792 72.7038 68.75 71.875 68.75ZM9.72852 81.2305L5.76562 94.2383L23.0078 88.9844C18.5605 87.207 14.0664 84.9414 9.72852 81.2305Z" fill="#E09077"/>
</svg>
