<svg width="137" height="137" viewBox="0 0 137 137" fill="none" xmlns="http://www.w3.org/2000/svg">
<path d="M68.5 25.9551C66.4932 25.9551 64.1438 27.5991 61.6736 31.3045C61.003 32.3106 60.3402 33.4499 59.6876 34.6969C60.9709 35.164 62.1292 35.7878 63.1923 36.343C65.2848 37.4363 67.031 38.2637 68.5 38.2637C69.9744 38.2637 71.719 37.4409 73.8098 36.3518C74.8748 35.7974 76.0334 35.1745 77.317 34.7057C76.6633 33.4553 75.9989 32.3127 75.3267 31.3048C72.8562 27.5985 70.5069 25.9551 68.5 25.9551ZM57.6109 39.1114C57.1279 40.2477 56.6685 41.3939 56.2329 42.5492C58.9951 42.6461 61.2511 43.8914 63.1926 44.9055C65.2848 45.9988 67.0305 46.8262 68.5 46.8262C69.9744 46.8262 71.719 46.0034 73.8098 44.9143C75.7524 43.9029 78.0071 42.6592 80.7679 42.5516C80.3333 41.3982 79.8748 40.254 79.3926 39.1197C78.3873 39.4407 77.2768 39.9759 76.035 40.6229C73.9599 41.7039 71.5386 43.0798 68.5 43.0798C65.4566 43.0798 63.0361 41.6948 60.9623 40.6114C59.7208 39.9631 58.613 39.4295 57.6109 39.1114ZM55.7331 47.3603C55.4253 47.3702 54.9854 47.4547 54.4693 47.5922C50.5279 59.6662 47.4828 74.6166 45.4005 86.9043C52.8788 88.0054 60.6883 88.5684 68.5 88.5684C76.3117 88.5684 84.1218 88.0051 91.5995 86.904C89.5161 74.6088 86.4681 59.6472 82.5232 47.5692C82.0215 47.4443 81.5921 47.3686 81.2817 47.3605C79.8253 47.3231 78.1101 48.1049 76.035 49.1854C73.9599 50.2664 71.5386 51.6426 68.5 51.6426C65.4566 51.6426 63.0361 50.2576 60.9623 49.1742C58.8886 48.0907 57.1804 47.3145 55.7331 47.36V47.3603ZM45.4597 62.0944C37.3159 63.48 30.0284 65.5657 24.0481 68.1578C18.5044 70.5595 14.0958 73.3969 11.1521 76.3756C12.8877 77.3256 14.6628 78.2014 16.4727 79.0006C26.2162 74.6872 35.209 71.465 43.8312 69.3287C44.3428 66.921 44.887 64.5013 45.4597 62.0944ZM91.5404 62.0944C92.113 64.5016 92.6572 66.921 93.1688 69.3287C101.791 71.465 110.784 74.6872 120.527 79.0006C122.337 78.2014 124.112 77.3256 125.848 76.3756C122.905 73.3967 118.496 70.5595 112.952 68.1575C106.972 65.5655 99.6841 63.4797 91.5404 62.0942V62.0944ZM42.7737 74.4873C36.4541 76.2154 29.869 78.5545 22.8319 81.5051C28.328 83.4338 34.3386 84.9772 40.6483 86.1243C41.2729 82.4352 41.9787 78.5152 42.7737 74.4873ZM94.2263 74.4873C95.021 78.5152 95.7274 82.4352 96.3517 86.1243C102.661 84.9772 108.672 83.4338 114.168 81.5051C107.131 78.5548 100.546 76.2156 94.2263 74.4873ZM8.16998 80.244C7.5021 81.4428 7.0622 82.6461 6.8468 83.8571L8.96067 80.6858C8.69604 80.5405 8.43247 80.3931 8.16998 80.244ZM128.83 80.244C128.568 80.3931 128.304 80.5403 128.039 80.6855L130.153 83.8571C129.938 82.6461 129.498 81.4422 128.83 80.244ZM15.252 83.7584V88.3746L17.6591 84.7639C16.8516 84.4412 16.0491 84.1061 15.252 83.7586V83.7584ZM121.748 83.7584C120.951 84.1058 120.148 84.441 119.341 84.7639L121.748 88.3746V83.7584ZM10.4356 87.1569L8.03405 90.7585C8.63075 91.8823 9.43027 93.0013 10.4356 94.1166V87.1569ZM126.564 87.1569V94.1166C127.57 93.0013 128.369 91.8823 128.966 90.7585L126.564 87.1569ZM24.6119 87.2326L26.9933 99.1366L34.0285 89.7561C30.7924 89.0275 27.6462 88.186 24.6119 87.2323V87.2326ZM112.388 87.2326C109.354 88.1863 106.208 89.0281 102.972 89.7559L110.007 99.1366L112.388 87.2326H112.388ZM20.185 89.6579L14.8474 97.6639L14.0901 97.4346C16.4636 99.2421 19.3802 100.959 22.7562 102.514L20.185 89.6579ZM116.815 89.6579L114.244 102.514C117.62 100.959 120.536 99.2421 122.91 97.4346L122.153 97.6639L116.815 89.6579ZM43.078 91.4735L51.846 109.009L64.3865 93.3342C57.1654 93.1656 49.9882 92.5515 43.078 91.4737V91.4735ZM93.9221 91.4735C87.0121 92.5513 79.8346 93.1651 72.6135 93.3342L85.1541 109.01L93.9221 91.4737V91.4735ZM38.1192 92.3278L28.6844 104.907C33.9749 106.779 40.0332 108.296 46.6322 109.353L38.1192 92.3278ZM98.8808 92.3278L90.3678 109.353C96.9668 108.296 103.025 106.779 108.315 104.907L98.8806 92.3284L98.8808 92.3278ZM68.5 95.9019L56.7662 110.569C60.6694 110.887 64.5839 111.046 68.5 111.045C72.5115 111.045 76.4337 110.88 80.2338 110.569L68.5 95.9019Z" fill="#E09077"/>
</svg>
