<svg width="125" height="89" viewBox="0 0 125 89" fill="none" xmlns="http://www.w3.org/2000/svg">
<path d="M62.5 0.697449C48.2648 0.697449 34.993 4.6576 24.4504 10.7049L28.25 16.6986L24.1828 19.2674L20.3752 13.2469C19.7945 13.6215 19.2246 14.0228 18.6653 14.4242C8.29668 21.8896 1.7758 31.4689 0.817871 40.4328C1.61525 42.2256 2.99061 45.1154 4.76197 48.139C7.63309 53.0357 11.7779 57.9324 14.7132 58.7887C19.5082 58.1197 23.8082 52.8752 28.1697 53.6244C34.8859 54.9891 38.3644 61.2236 41.6289 66.4682C44.1174 70.348 47.2748 75.7531 51.8236 76.2347C53.4826 76.4221 54.9275 75.9137 56.5597 74.8433C58.192 73.7463 59.9045 72.0605 61.6972 70.2142C65.2293 66.5484 69.1092 61.9461 74.9424 61.2236C79.0363 60.6885 82.3275 62.8826 85.1371 64.5416C87.9199 66.1738 90.1408 67.2709 91.9603 66.8428H91.9871C94.9572 65.3978 96.4824 62.8826 97.9006 60.6349L88.3748 53.8385L91.1576 49.9318L100.764 56.7818C102.128 55.3101 103.814 54.106 106.035 53.6244C109.112 52.9555 111.494 54.6412 113.286 55.765C115.052 56.8889 116.283 57.4508 116.979 57.317C117.808 57.1564 120.136 55.4439 121.822 53.6244C122.357 53.0357 122.866 52.4471 123.267 51.9387C123.963 49.0221 124.311 45.9449 124.311 42.7072C124.311 42.3058 124.284 41.9045 124.284 41.5299L114.223 46.5336L112.082 42.1988L123.428 36.5262C121.287 28.7664 115.213 20.8193 106.329 14.4242C95.091 6.31659 79.4912 0.697449 62.5 0.697449ZM80.9896 4.49706L82.5951 9.04589L69.1359 13.8891L67.5304 9.34022L80.9896 4.49706ZM43.4752 7.44042L52.4123 10.0092L51.0744 14.6115L42.1373 12.0695L43.4752 7.44042ZM92.8166 13.5947L103.439 20.9799L100.71 24.94L90.0873 17.5549L92.8166 13.5947ZM80.0799 17.0197L82.9697 20.8728L74.1396 27.4285L71.2498 23.5754L80.0799 17.0197ZM38.0701 26.1174L38.7658 30.8803L26.5642 32.7266L25.8685 27.9637L38.0701 26.1174ZM62.5 27.0807C67.2629 27.0807 71.5976 27.9369 74.9424 29.5156C78.2871 31.0676 81.0699 33.5293 81.0699 37.0078C81.0699 40.4863 78.2871 42.948 74.9424 44.5C71.5976 46.0787 67.2629 46.9349 62.5 46.9349C57.7371 46.9349 53.4023 46.0787 50.0576 44.5C46.7129 42.948 43.9301 40.4863 43.9301 37.0078C43.9301 33.5293 46.7129 31.0676 50.0576 29.5156C53.4023 27.9369 57.7371 27.0807 62.5 27.0807ZM101.62 28.5791L102.851 33.2349L90.2211 36.4994L88.9902 31.8435L101.62 28.5791ZM62.5 31.8971C58.3258 31.8971 54.5797 32.6998 52.0912 33.8771C49.576 35.0277 48.7465 36.3389 48.7465 37.0078C48.7465 37.6767 49.576 38.9879 52.0912 40.1385C54.5797 41.3158 58.3258 42.1185 62.5 42.1185C66.6742 42.1185 70.4203 41.3158 72.9088 40.1385C75.424 38.9879 76.2535 37.6767 76.2535 37.0078C76.2535 36.3389 75.424 35.0277 72.9088 33.8771C70.4203 32.6998 66.6742 31.8971 62.5 31.8971ZM10.4721 36.7135L21.1056 40.8342L19.3664 45.3295L8.73283 41.2088L10.4721 36.7135ZM1.90959 52.7414C4.33385 62.2672 10.2554 70.0537 18.6466 75.9939C29.8019 83.8607 45.4017 88.3025 62.5 88.3025C79.5982 88.3025 95.198 83.8607 106.356 75.9939C112.002 72.007 116.551 67.1639 119.628 61.4912C119.093 61.732 118.531 61.9193 117.942 62.0264C114.865 62.6685 112.484 60.956 110.718 59.8322C108.925 58.7351 107.721 58.1732 107.052 58.3338C105.125 58.7619 103.466 60.9293 101.54 63.8994C99.5863 66.8428 97.3654 70.5889 93.0306 71.5521C88.9635 72.4619 85.5385 70.3748 82.6754 68.689C79.839 67.0033 77.4576 65.7457 75.5578 65.9865C71.0625 67.3244 67.7445 70.8832 65.149 73.559C63.3295 75.4588 61.4564 77.3853 59.2355 78.857C57.0146 80.3287 54.3388 81.3187 51.342 81.0512C44.1709 79.74 40.8529 74.3885 37.5349 69.0101C34.2437 63.7389 31.2469 59.1633 27.2064 58.3338C22.2027 59.1365 18.7456 64.8627 13.3619 63.391C8.43047 61.9461 4.79676 57.3705 1.90959 52.7414ZM61.7508 53.4906L62.4465 58.2535L48.9605 60.2336L48.2648 55.4707L61.7508 53.4906Z" fill="#E09077"/>
</svg>
