<svg width="1033" height="42" viewBox="0 0 1033 42" fill="none" xmlns="http://www.w3.org/2000/svg">
<line y1="-1.25" x2="49.8197" y2="-1.25" transform="matrix(0.782823 -0.622244 -0.622244 -0.782823 37 39.4242)" stroke="#99C232" stroke-width="2.5"/>
<line y1="-1.25" x2="48.4149" y2="-1.25" transform="matrix(0.784883 0.619644 0.619644 -0.784883 76 8.42419)" stroke="#99C232" stroke-width="2.5"/>
<line y1="-1.25" x2="48.4149" y2="-1.25" transform="matrix(0.784883 0.619644 0.619644 -0.784883 2 9.42419)" stroke="#99C232" stroke-width="2.5"/>
<line y1="-1.25" x2="48.4149" y2="-1.25" transform="matrix(0.777885 -0.628406 -0.628406 -0.777885 111 38.4242)" stroke="#99C232" stroke-width="2.5"/>
<circle cx="4" cy="4" r="4" transform="matrix(1 0 0 -1 145 35.4242)" fill="#99C232"/>
<circle cx="4" cy="4" r="4" transform="matrix(1 0 0 -1 72 35.4242)" fill="#99C232"/>
<circle cx="4" cy="4" r="4" transform="matrix(1 0 0 -1 110 20.4242)" fill="#99C232"/>
<circle cx="4" cy="4" r="4" transform="matrix(1 0 0 -1 35 20.4242)" fill="#99C232"/>
<line y1="-1.5" x2="49.8197" y2="-1.5" transform="matrix(0.782823 -0.622244 -0.622244 -0.782823 184 38.4242)" stroke="#99C232" stroke-width="3"/>
<line y1="-1.5" x2="48.4149" y2="-1.5" transform="matrix(0.784883 0.619644 0.619644 -0.784883 223 7.42419)" stroke="#99C232" stroke-width="3"/>
<line y1="-1.5" x2="48.4149" y2="-1.5" transform="matrix(0.784883 0.619644 0.619644 -0.784883 149 8.42419)" stroke="#99C232" stroke-width="3"/>
<line y1="-1.5" x2="48.4149" y2="-1.5" transform="matrix(0.777885 -0.628406 -0.628406 -0.777885 258 37.4242)" stroke="#99C232" stroke-width="3"/>
<line y1="-1.5" x2="49.8197" y2="-1.5" transform="matrix(0.782823 -0.622244 -0.622244 -0.782823 184 38.4242)" stroke="#99C232" stroke-width="3"/>
<line y1="-1.5" x2="48.4149" y2="-1.5" transform="matrix(0.784883 0.619644 0.619644 -0.784883 223 7.42419)" stroke="#99C232" stroke-width="3"/>
<line y1="-1.5" x2="48.4149" y2="-1.5" transform="matrix(0.784883 0.619644 0.619644 -0.784883 149 8.42419)" stroke="#99C232" stroke-width="3"/>
<line y1="-1.5" x2="48.4149" y2="-1.5" transform="matrix(0.777885 -0.628406 -0.628406 -0.777885 258 37.4242)" stroke="#99C232" stroke-width="3"/>
<circle cx="4" cy="4" r="4" transform="matrix(1 0 0 -1 219 34.4242)" fill="#99C232"/>
<circle cx="4" cy="4" r="4" transform="matrix(1 0 0 -1 257 19.4242)" fill="#99C232"/>
<circle cx="4" cy="4" r="4" transform="matrix(1 0 0 -1 182 19.4242)" fill="#99C232"/>
<line y1="-1.5" x2="49.8197" y2="-1.5" transform="matrix(0.782823 -0.622244 -0.622244 -0.782823 331 37.4242)" stroke="#99C232" stroke-width="3"/>
<line y1="-1.5" x2="48.4149" y2="-1.5" transform="matrix(0.784883 0.619644 0.619644 -0.784883 370 6.42419)" stroke="#99C232" stroke-width="3"/>
<line y1="-1.5" x2="48.4149" y2="-1.5" transform="matrix(0.784883 0.619644 0.619644 -0.784883 296 7.42419)" stroke="#99C232" stroke-width="3"/>
<line y1="-1.5" x2="48.4149" y2="-1.5" transform="matrix(0.777885 -0.628406 -0.628406 -0.777885 405 36.4242)" stroke="#99C232" stroke-width="3"/>
<circle cx="4" cy="4" r="4" transform="matrix(1 0 0 -1 366 33.4242)" fill="#99C232"/>
<circle cx="4" cy="4" r="4" transform="matrix(1 0 0 -1 440 34.4242)" fill="#99C232"/>
<circle cx="4" cy="4" r="4" transform="matrix(1 0 0 -1 292 35.4242)" fill="#99C232"/>
<circle cx="4" cy="4" r="4" transform="matrix(1 0 0 -1 404 18.4242)" fill="#99C232"/>
<circle cx="4" cy="4" r="4" transform="matrix(1 0 0 -1 329 18.4242)" fill="#99C232"/>
<line y1="-1.5" x2="49.8197" y2="-1.5" transform="matrix(0.782823 -0.622244 -0.622244 -0.782823 478 35.4242)" stroke="#99C232" stroke-width="3"/>
<line y1="-1.5" x2="48.4149" y2="-1.5" transform="matrix(0.784883 0.619644 0.619644 -0.784883 517 4.42419)" stroke="#99C232" stroke-width="3"/>
<line y1="-1.5" x2="48.4149" y2="-1.5" transform="matrix(0.784883 0.619644 0.619644 -0.784883 443 5.42419)" stroke="#99C232" stroke-width="3"/>
<line y1="-1.5" x2="48.4149" y2="-1.5" transform="matrix(0.777885 -0.628406 -0.628406 -0.777885 552 34.4242)" stroke="#99C232" stroke-width="3"/>
<line y1="-1.5" x2="49.8197" y2="-1.5" transform="matrix(0.782823 -0.622244 -0.622244 -0.782823 478 35.4242)" stroke="#99C232" stroke-width="3"/>
<line y1="-1.5" x2="48.4149" y2="-1.5" transform="matrix(0.784883 0.619644 0.619644 -0.784883 517 4.42419)" stroke="#99C232" stroke-width="3"/>
<line y1="-1.5" x2="48.4149" y2="-1.5" transform="matrix(0.784883 0.619644 0.619644 -0.784883 443 5.42419)" stroke="#99C232" stroke-width="3"/>
<line y1="-1.5" x2="48.4149" y2="-1.5" transform="matrix(0.777885 -0.628406 -0.628406 -0.777885 552 34.4242)" stroke="#99C232" stroke-width="3"/>
<circle cx="4" cy="4" r="4" transform="matrix(1 0 0 -1 513 31.4242)" fill="#99C232"/>
<circle cx="4" cy="4" r="4" transform="matrix(1 0 0 -1 551 16.4242)" fill="#99C232"/>
<circle cx="4" cy="4" r="4" transform="matrix(1 0 0 -1 476 16.4242)" fill="#99C232"/>
<line y1="-1.5" x2="49.8197" y2="-1.5" transform="matrix(0.782823 -0.622244 -0.622244 -0.782823 625 34.4242)" stroke="#99C232" stroke-width="3"/>
<line y1="-1.5" x2="48.4149" y2="-1.5" transform="matrix(0.784883 0.619644 0.619644 -0.784883 664 3.42419)" stroke="#99C232" stroke-width="3"/>
<line y1="-1.5" x2="48.4149" y2="-1.5" transform="matrix(0.784883 0.619644 0.619644 -0.784883 590 4.42419)" stroke="#99C232" stroke-width="3"/>
<line y1="-1.5" x2="48.4149" y2="-1.5" transform="matrix(0.777885 -0.628406 -0.628406 -0.777885 699 33.4242)" stroke="#99C232" stroke-width="3"/>
<circle cx="4" cy="4" r="4" transform="matrix(1 0 0 -1 660 30.4242)" fill="#99C232"/>
<circle cx="4" cy="4" r="4" transform="matrix(1 0 0 -1 586 32.4242)" fill="#99C232"/>
<circle cx="4" cy="4" r="4" transform="matrix(1 0 0 -1 698 15.4242)" fill="#99C232"/>
<circle cx="4" cy="4" r="4" transform="matrix(1 0 0 -1 623 15.4242)" fill="#99C232"/>
<line y1="-1.5" x2="49.8197" y2="-1.5" transform="matrix(0.782823 -0.622244 -0.622244 -0.782823 772 32.4242)" stroke="#99C232" stroke-width="3"/>
<line y1="-1.5" x2="48.4149" y2="-1.5" transform="matrix(0.784883 0.619644 0.619644 -0.784883 811 1.42419)" stroke="#99C232" stroke-width="3"/>
<line y1="-1.5" x2="48.4149" y2="-1.5" transform="matrix(0.784883 0.619644 0.619644 -0.784883 737 2.42419)" stroke="#99C232" stroke-width="3"/>
<line y1="-1.5" x2="48.4149" y2="-1.5" transform="matrix(0.777885 -0.628406 -0.628406 -0.777885 846 31.4242)" stroke="#99C232" stroke-width="3"/>
<line y1="-1.5" x2="49.8197" y2="-1.5" transform="matrix(0.782823 -0.622244 -0.622244 -0.782823 772 32.4242)" stroke="#99C232" stroke-width="3"/>
<line y1="-1.5" x2="48.4149" y2="-1.5" transform="matrix(0.784883 0.619644 0.619644 -0.784883 811 1.42419)" stroke="#99C232" stroke-width="3"/>
<line y1="-1.5" x2="48.4149" y2="-1.5" transform="matrix(0.784883 0.619644 0.619644 -0.784883 737 2.42419)" stroke="#99C232" stroke-width="3"/>
<line y1="-1.5" x2="48.4149" y2="-1.5" transform="matrix(0.777885 -0.628406 -0.628406 -0.777885 846 31.4242)" stroke="#99C232" stroke-width="3"/>
<circle cx="4" cy="4" r="4" transform="matrix(1 0 0 -1 807 28.4242)" fill="#99C232"/>
<circle cx="4" cy="4" r="4" transform="matrix(1 0 0 -1 733 30.4242)" fill="#99C232"/>
<circle cx="4" cy="4" r="4" transform="matrix(1 0 0 -1 845 13.4242)" fill="#99C232"/>
<circle cx="4" cy="4" r="4" transform="matrix(1 0 0 -1 770 13.4242)" fill="#99C232"/>
<line y1="-1.5" x2="49.8197" y2="-1.5" transform="matrix(0.782823 -0.622244 -0.622244 -0.782823 919 31.4242)" stroke="#99C232" stroke-width="3"/>
<line y1="-1.5" x2="48.4149" y2="-1.5" transform="matrix(0.784883 0.619644 0.619644 -0.784883 958 0.424194)" stroke="#99C232" stroke-width="3"/>
<line y1="-1.5" x2="48.4149" y2="-1.5" transform="matrix(0.784883 0.619644 0.619644 -0.784883 884 1.42419)" stroke="#99C232" stroke-width="3"/>
<line y1="-1.5" x2="48.4149" y2="-1.5" transform="matrix(0.777885 -0.628406 -0.628406 -0.777885 993 30.4242)" stroke="#99C232" stroke-width="3"/>
<circle cx="4" cy="4" r="4" transform="matrix(1 0 0 -1 954 27.4242)" fill="#99C232"/>
<circle cx="4" cy="4" r="4" transform="matrix(1 0 0 -1 880 29.4242)" fill="#99C232"/>
<circle cx="4" cy="4" r="4" transform="matrix(1 0 0 -1 992 12.4242)" fill="#99C232"/>
<circle cx="4" cy="4" r="4" transform="matrix(1 0 0 -1 917 12.4242)" fill="#99C232"/>
</svg>
