<svg width="17" height="17" viewBox="0 0 17 17" fill="none" xmlns="http://www.w3.org/2000/svg">
<path d="M5.17499 0.583252H11.825C14.3583 0.583252 16.4167 2.64159 16.4167 5.17492V11.8249C16.4167 13.0427 15.9329 14.2106 15.0718 15.0717C14.2107 15.9328 13.0428 16.4166 11.825 16.4166H5.17499C2.64166 16.4166 0.583328 14.3583 0.583328 11.8249V5.17492C0.583328 3.95713 1.06709 2.78922 1.9282 1.92812C2.7893 1.06702 3.95721 0.583252 5.17499 0.583252ZM5.01666 2.16659C4.26079 2.16659 3.53589 2.46685 3.00141 3.00133C2.46693 3.53581 2.16666 4.26072 2.16666 5.01659V11.9833C2.16666 13.5587 3.44124 14.8333 5.01666 14.8333H11.9833C12.7392 14.8333 13.4641 14.533 13.9986 13.9985C14.5331 13.464 14.8333 12.7391 14.8333 11.9833V5.01659C14.8333 3.44117 13.5587 2.16659 11.9833 2.16659H5.01666ZM12.6562 3.35409C12.9187 3.35409 13.1704 3.45834 13.356 3.64393C13.5416 3.82951 13.6458 4.08121 13.6458 4.34367C13.6458 4.60612 13.5416 4.85783 13.356 5.04341C13.1704 5.22899 12.9187 5.33325 12.6562 5.33325C12.3938 5.33325 12.1421 5.22899 11.9565 5.04341C11.7709 4.85783 11.6667 4.60612 11.6667 4.34367C11.6667 4.08121 11.7709 3.82951 11.9565 3.64393C12.1421 3.45834 12.3938 3.35409 12.6562 3.35409ZM8.5 4.54159C9.54981 4.54159 10.5566 4.95862 11.299 5.70095C12.0413 6.44329 12.4583 7.4501 12.4583 8.49992C12.4583 9.54973 12.0413 10.5566 11.299 11.2989C10.5566 12.0412 9.54981 12.4583 8.5 12.4583C7.45018 12.4583 6.44336 12.0412 5.70103 11.2989C4.9587 10.5566 4.54166 9.54973 4.54166 8.49992C4.54166 7.4501 4.9587 6.44329 5.70103 5.70095C6.44336 4.95862 7.45018 4.54159 8.5 4.54159ZM8.5 6.12492C7.87011 6.12492 7.26602 6.37514 6.82062 6.82054C6.37522 7.26594 6.125 7.87003 6.125 8.49992C6.125 9.12981 6.37522 9.7339 6.82062 10.1793C7.26602 10.6247 7.87011 10.8749 8.5 10.8749C9.12988 10.8749 9.73398 10.6247 10.1794 10.1793C10.6248 9.7339 10.875 9.12981 10.875 8.49992C10.875 7.87003 10.6248 7.26594 10.1794 6.82054C9.73398 6.37514 9.12988 6.12492 8.5 6.12492Z" fill="white"/>
</svg>
