<svg width="21" height="21" viewBox="0 0 21 21" fill="none" xmlns="http://www.w3.org/2000/svg">
<path d="M17.4563 18.375C15.6333 18.375 13.8323 17.9778 12.0531 17.1833C10.274 16.3888 8.65521 15.262 7.19688 13.8031C5.73854 12.3442 4.61212 10.7255 3.81762 8.94688C3.02312 7.16829 2.62558 5.36725 2.625 3.54375C2.625 3.28125 2.7125 3.0625 2.8875 2.8875C3.0625 2.7125 3.28125 2.625 3.54375 2.625H7.0875C7.29167 2.625 7.47396 2.69442 7.63438 2.83325C7.79479 2.97208 7.88958 3.136 7.91875 3.325L8.4875 6.3875C8.51667 6.62083 8.50938 6.81771 8.46563 6.97813C8.42188 7.13854 8.34167 7.27708 8.225 7.39375L6.10312 9.5375C6.39479 10.0771 6.741 10.5983 7.14175 11.1011C7.5425 11.604 7.98379 12.089 8.46563 12.5563C8.91771 13.0083 9.39167 13.4277 9.8875 13.8145C10.3833 14.2013 10.9083 14.5548 11.4625 14.875L13.5188 12.8187C13.65 12.6875 13.8215 12.5892 14.0332 12.5239C14.245 12.4585 14.4527 12.4402 14.6562 12.4688L17.675 13.0813C17.8792 13.1396 18.0469 13.2455 18.1781 13.3989C18.3094 13.5523 18.375 13.7235 18.375 13.9125V17.4563C18.375 17.7188 18.2875 17.9375 18.1125 18.1125C17.9375 18.2875 17.7188 18.375 17.4563 18.375Z" fill="#FF9D9B"/>
</svg>
