<svg width="18" height="18" viewBox="0 0 18 18" fill="none" xmlns="http://www.w3.org/2000/svg">
<path d="M1.82167 1.82175C0.666672 2.98775 0.666672 4.85225 0.666672 8.58675V9.24675C0.666672 12.9757 0.666672 14.8402 1.82167 16.0117C2.98767 17.1667 4.85217 17.1667 8.58667 17.1667H9.24667C12.9757 17.1667 14.8402 17.1667 16.0117 16.0117C17.1667 14.8457 17.1667 12.9812 17.1667 9.24675V8.58675C17.1667 4.85775 17.1667 2.99325 16.0117 1.82175C14.8457 0.666748 12.9812 0.666748 9.24667 0.666748H8.58667C4.85767 0.666748 2.99317 0.666748 1.82167 1.82175ZM3.44967 5.68825H5.34167C5.40217 8.83425 6.78817 10.1652 7.88817 10.4402V5.68825H9.66467V8.39975C10.7482 8.28425 11.8922 7.04675 12.2772 5.68275H14.0482C13.9037 6.38878 13.6152 7.05744 13.2007 7.64699C12.7862 8.23654 12.2546 8.73432 11.6392 9.10925C12.3262 9.45105 12.9328 9.93464 13.4192 10.5281C13.9056 11.1216 14.2605 11.8115 14.4607 12.5522H12.5082C12.0902 11.2487 11.0452 10.2367 9.66467 10.0992V12.5522H9.44467C5.68267 12.5522 3.53767 9.97825 3.44967 5.68825Z" fill="white"/>
</svg>
