<svg width="20" height="14" viewBox="0 0 20 14" fill="none" xmlns="http://www.w3.org/2000/svg">
<path d="M8.16667 9.74992L12.9242 6.99992L8.16667 4.24992V9.74992ZM18.7633 2.57242C18.8825 3.00325 18.965 3.58075 19.02 4.31408C19.0842 5.04742 19.1117 5.67992 19.1117 6.22992L19.1667 6.99992C19.1667 9.00742 19.02 10.4833 18.7633 11.4274C18.5342 12.2524 18.0025 12.7841 17.1775 13.0133C16.7467 13.1324 15.9583 13.2149 14.7483 13.2699C13.5567 13.3341 12.4658 13.3616 11.4575 13.3616L10 13.4166C6.15917 13.4166 3.76667 13.2699 2.8225 13.0133C1.9975 12.7841 1.46584 12.2524 1.23667 11.4274C1.1175 10.9966 1.035 10.4191 0.980003 9.68575C0.915836 8.95242 0.888336 8.31992 0.888336 7.76992L0.833336 6.99992C0.833336 4.99242 0.980003 3.51659 1.23667 2.57242C1.46584 1.74742 1.9975 1.21575 2.8225 0.986585C3.25334 0.867419 4.04167 0.784918 5.25167 0.729918C6.44334 0.665752 7.53417 0.638252 8.5425 0.638252L10 0.583252C13.8408 0.583252 16.2333 0.729919 17.1775 0.986585C18.0025 1.21575 18.5342 1.74742 18.7633 2.57242Z" fill="white"/>
</svg>
