<svg width="34" height="33" viewBox="0 0 34 33" fill="none" xmlns="http://www.w3.org/2000/svg">
<path d="M17.1408 27.5109C16.9641 27.512 16.7889 27.478 16.6255 27.4107C16.4621 27.3435 16.3137 27.2444 16.1889 27.1193L7.11912 18.0427C6.30396 17.2255 5.69524 16.2259 5.34337 15.1266C4.99151 14.0273 4.90663 12.8599 5.09576 11.7213C5.28489 10.5826 5.74259 9.50543 6.43096 8.5789C7.11932 7.65238 8.01853 6.90319 9.0541 6.39341C10.3604 5.74084 11.8348 5.50287 13.28 5.71138C14.7252 5.91989 16.0723 6.56492 17.1408 7.56011C18.2093 6.56492 19.5563 5.91989 21.0015 5.71138C22.4468 5.50287 23.9212 5.74084 25.2274 6.39341C26.263 6.90319 27.1622 7.65238 27.8506 8.5789C28.539 9.50543 28.9967 10.5826 29.1858 11.7213C29.3749 12.8599 29.29 14.0273 28.9382 15.1266C28.5863 16.2259 27.9776 17.2255 27.1624 18.0427L18.0845 27.1193C17.9607 27.2435 17.8136 27.342 17.6516 27.4092C17.4897 27.4764 17.3161 27.511 17.1408 27.5109ZM12.1843 7.00531C11.313 6.99968 10.453 7.20347 9.67689 7.59954C8.82344 8.02287 8.08341 8.64387 7.51838 9.41089C6.95335 10.1779 6.57964 11.0688 6.42835 12.0093C6.28725 12.9251 6.36324 13.8612 6.65021 14.7422C6.93719 15.6232 7.42711 16.4244 8.08049 17.0814L17.1571 26.158L26.201 17.0814C26.8544 16.4244 27.3444 15.6232 27.6313 14.7422C27.9183 13.8612 27.9943 12.9251 27.8532 12.0093C27.7019 11.0688 27.3282 10.1779 26.7632 9.41089C26.1981 8.64387 25.4581 8.02287 24.6047 7.59954C23.4982 7.06538 22.2525 6.8899 21.0415 7.09759C19.8305 7.30527 18.7145 7.88576 17.8492 8.75808C17.6601 8.94361 17.4057 9.04755 17.1408 9.04755C16.8758 9.04755 16.6215 8.94361 16.4323 8.75808C15.3003 7.64044 13.7751 7.01116 12.1843 7.00531Z" fill="#584144"/>
</svg>
