<svg width="1033" height="42" viewBox="0 0 1033 42" fill="none" xmlns="http://www.w3.org/2000/svg">
<line x1="37.7778" y1="1.02147" x2="76.7778" y2="32.0215" stroke="#E62030" stroke-width="2.5"/>
<line x1="75.2254" y1="32.0189" x2="113.225" y2="2.0189" stroke="#E52035" stroke-width="2.5"/>
<line x1="1.22544" y1="31.0189" x2="39.2254" y2="1.0189" stroke="#E52035" stroke-width="2.5"/>
<line x1="111.786" y1="2.02764" x2="149.447" y2="32.4518" stroke="#E52035" stroke-width="2.5"/>
<circle cx="149" cy="10" r="4" fill="#E41F32"/>
<circle cx="76" cy="10" r="4" fill="#E41F32"/>
<circle cx="114" cy="25" r="4" fill="#E41F32"/>
<circle cx="39" cy="25" r="4" fill="#E41F32"/>
<line x1="184.933" y1="1.82577" x2="223.933" y2="32.8258" stroke="#E62030" stroke-width="3"/>
<line x1="222.071" y1="32.8227" x2="260.071" y2="2.82268" stroke="#E52035" stroke-width="3"/>
<line x1="148.071" y1="31.8227" x2="186.071" y2="1.82268" stroke="#E52035" stroke-width="3"/>
<line x1="258.943" y1="2.83317" x2="296.604" y2="33.2574" stroke="#E52035" stroke-width="3"/>
<line x1="184.933" y1="1.82577" x2="223.933" y2="32.8258" stroke="#E62030" stroke-width="3"/>
<line x1="222.071" y1="32.8227" x2="260.071" y2="2.82268" stroke="#E52035" stroke-width="3"/>
<line x1="148.071" y1="31.8227" x2="186.071" y2="1.82268" stroke="#E52035" stroke-width="3"/>
<line x1="258.943" y1="2.83317" x2="296.604" y2="33.2574" stroke="#E52035" stroke-width="3"/>
<circle cx="223" cy="11" r="4" fill="#E41F32"/>
<circle cx="261" cy="26" r="4" fill="#E41F32"/>
<circle cx="186" cy="26" r="4" fill="#E41F32"/>
<line x1="331.933" y1="2.82577" x2="370.933" y2="33.8258" stroke="#E62030" stroke-width="3"/>
<line x1="369.071" y1="33.8227" x2="407.071" y2="3.82268" stroke="#E52035" stroke-width="3"/>
<line x1="295.071" y1="32.8227" x2="333.071" y2="2.82268" stroke="#E52035" stroke-width="3"/>
<line x1="405.943" y1="3.83317" x2="443.604" y2="34.2574" stroke="#E52035" stroke-width="3"/>
<circle cx="370" cy="12" r="4" fill="#E41F32"/>
<circle cx="444" cy="11" r="4" fill="#E41F32"/>
<circle cx="296" cy="10" r="4" fill="#E41F32"/>
<circle cx="408" cy="27" r="4" fill="#E41F32"/>
<circle cx="333" cy="27" r="4" fill="#E41F32"/>
<line x1="478.933" y1="4.82577" x2="517.933" y2="35.8258" stroke="#E62030" stroke-width="3"/>
<line x1="516.071" y1="35.8227" x2="554.071" y2="5.82268" stroke="#E52035" stroke-width="3"/>
<line x1="442.071" y1="34.8227" x2="480.071" y2="4.82268" stroke="#E52035" stroke-width="3"/>
<line x1="552.943" y1="5.83317" x2="590.604" y2="36.2574" stroke="#E52035" stroke-width="3"/>
<line x1="478.933" y1="4.82577" x2="517.933" y2="35.8258" stroke="#E62030" stroke-width="3"/>
<line x1="516.071" y1="35.8227" x2="554.071" y2="5.82268" stroke="#E52035" stroke-width="3"/>
<line x1="442.071" y1="34.8227" x2="480.071" y2="4.82268" stroke="#E52035" stroke-width="3"/>
<line x1="552.943" y1="5.83317" x2="590.604" y2="36.2574" stroke="#E52035" stroke-width="3"/>
<circle cx="517" cy="14" r="4" fill="#E41F32"/>
<circle cx="555" cy="29" r="4" fill="#E41F32"/>
<circle cx="480" cy="29" r="4" fill="#E41F32"/>
<line x1="625.933" y1="5.82577" x2="664.933" y2="36.8258" stroke="#E62030" stroke-width="3"/>
<line x1="663.071" y1="36.8227" x2="701.071" y2="6.82268" stroke="#E52035" stroke-width="3"/>
<line x1="589.071" y1="35.8227" x2="627.071" y2="5.82268" stroke="#E52035" stroke-width="3"/>
<line x1="699.943" y1="6.83317" x2="737.604" y2="37.2574" stroke="#E52035" stroke-width="3"/>
<circle cx="664" cy="15" r="4" fill="#E41F32"/>
<circle cx="590" cy="13" r="4" fill="#E41F32"/>
<circle cx="702" cy="30" r="4" fill="#E41F32"/>
<circle cx="627" cy="30" r="4" fill="#E41F32"/>
<line x1="772.933" y1="7.82577" x2="811.933" y2="38.8258" stroke="#E62030" stroke-width="3"/>
<line x1="810.071" y1="38.8227" x2="848.071" y2="8.82268" stroke="#E52035" stroke-width="3"/>
<line x1="736.071" y1="37.8227" x2="774.071" y2="7.82268" stroke="#E52035" stroke-width="3"/>
<line x1="846.943" y1="8.83317" x2="884.604" y2="39.2574" stroke="#E52035" stroke-width="3"/>
<line x1="772.933" y1="7.82577" x2="811.933" y2="38.8258" stroke="#E62030" stroke-width="3"/>
<line x1="810.071" y1="38.8227" x2="848.071" y2="8.82268" stroke="#E52035" stroke-width="3"/>
<line x1="736.071" y1="37.8227" x2="774.071" y2="7.82268" stroke="#E52035" stroke-width="3"/>
<line x1="846.943" y1="8.83317" x2="884.604" y2="39.2574" stroke="#E52035" stroke-width="3"/>
<circle cx="811" cy="17" r="4" fill="#E41F32"/>
<circle cx="737" cy="15" r="4" fill="#E41F32"/>
<circle cx="849" cy="32" r="4" fill="#E41F32"/>
<circle cx="774" cy="32" r="4" fill="#E41F32"/>
<line x1="919.933" y1="8.82577" x2="958.933" y2="39.8258" stroke="#E62030" stroke-width="3"/>
<line x1="957.071" y1="39.8227" x2="995.071" y2="9.82268" stroke="#E52035" stroke-width="3"/>
<line x1="883.071" y1="38.8227" x2="921.071" y2="8.82268" stroke="#E52035" stroke-width="3"/>
<line x1="993.943" y1="9.83317" x2="1031.6" y2="40.2574" stroke="#E52035" stroke-width="3"/>
<circle cx="958" cy="18" r="4" fill="#E41F32"/>
<circle cx="884" cy="16" r="4" fill="#E41F32"/>
<circle cx="996" cy="33" r="4" fill="#E41F32"/>
<circle cx="921" cy="33" r="4" fill="#E41F32"/>
</svg>
