<svg width="307" height="25" viewBox="0 0 307 25" fill="none" xmlns="http://www.w3.org/2000/svg">
<line x1="27.6343" y1="1.02147" x2="54.2172" y2="22.1515" stroke="#E62030" stroke-width="2.5"/>
<line x1="52.6649" y1="22.1489" x2="78.5662" y2="1.7005" stroke="#E52035" stroke-width="2.5"/>
<line x1="2.22544" y1="21.4673" x2="28.1268" y2="1.01889" stroke="#E52035" stroke-width="2.5"/>
<line x1="78.0814" y1="1.70925" x2="103.752" y2="22.4468" stroke="#E52035" stroke-width="2.5"/>
<circle cx="103.197" cy="7.45293" r="2.72646" fill="#E41F32"/>
<circle cx="53.4393" cy="7.45293" r="2.72646" fill="#E41F32"/>
<circle cx="79.3407" cy="17.6771" r="2.72646" fill="#E41F32"/>
<circle cx="28.2196" cy="17.6771" r="2.72646" fill="#E41F32"/>
<circle cx="2.72646" cy="7.72646" r="2.72646" fill="#E41F32"/>
<line x1="127.987" y1="1.50741" x2="154.57" y2="22.6375" stroke="#E62030" stroke-width="3"/>
<line x1="152.707" y1="22.6344" x2="178.609" y2="2.18592" stroke="#E52035" stroke-width="3"/>
<line x1="102.268" y1="21.9527" x2="128.169" y2="1.50431" stroke="#E52035" stroke-width="3"/>
<line x1="178.436" y1="2.19642" x2="204.106" y2="22.934" stroke="#E52035" stroke-width="3"/>
<line x1="127.987" y1="1.50741" x2="154.57" y2="22.6375" stroke="#E62030" stroke-width="3"/>
<line x1="152.707" y1="22.6344" x2="178.609" y2="2.18592" stroke="#E52035" stroke-width="3"/>
<line x1="102.268" y1="21.9527" x2="128.169" y2="1.50431" stroke="#E52035" stroke-width="3"/>
<line x1="178.436" y1="2.19642" x2="204.106" y2="22.934" stroke="#E52035" stroke-width="3"/>
<circle cx="153.637" cy="8.13457" r="2.72646" fill="#E41F32"/>
<circle cx="179.538" cy="18.3588" r="2.72646" fill="#E41F32"/>
<circle cx="128.417" cy="18.3588" r="2.72646" fill="#E41F32"/>
<line x1="228.184" y1="2.18902" x2="254.767" y2="23.3191" stroke="#E62030" stroke-width="3"/>
<line x1="252.905" y1="23.316" x2="278.806" y2="2.86753" stroke="#E52035" stroke-width="3"/>
<line x1="202.465" y1="22.6344" x2="228.366" y2="2.18592" stroke="#E52035" stroke-width="3"/>
<line x1="278.633" y1="2.87803" x2="304.303" y2="23.6156" stroke="#E52035" stroke-width="3"/>
<circle cx="253.834" cy="8.81618" r="2.72646" fill="#E41F32"/>
<circle cx="304.273" cy="8.13457" r="2.72646" fill="#E41F32"/>
<circle cx="203.394" cy="7.45293" r="2.72646" fill="#E41F32"/>
<circle cx="279.735" cy="19.0404" r="2.72646" fill="#E41F32"/>
<circle cx="228.614" cy="19.0404" r="2.72646" fill="#E41F32"/>
</svg>
