<svg width="142" height="136" viewBox="0 0 142 136" fill="none" xmlns="http://www.w3.org/2000/svg">
<g clip-path="url(#clip0_160_740)">
<path d="M26.7372 71.3267C26.9019 71.1675 27.1398 71.1019 27.4843 71.1819C28.1423 71.3331 28.726 72.59 28.9842 73.114C29.6701 74.5353 30.2525 75.9939 30.846 77.4582C32.4724 81.4646 33.8823 86.3711 38.2879 88.4558C40.967 89.7125 44.1044 89.4337 46.9886 88.7522C47.6738 88.5894 51.1773 87.3344 53.6374 86.5247C54.9676 86.0879 56.0029 85.7849 56.054 85.867C56.485 86.5359 57.1808 87.2368 56.4184 87.8759C55.9394 88.2706 55.385 88.5985 54.793 88.893C52.9577 89.8018 50.6836 90.2889 48.8794 90.7952C45.6545 91.7195 42.2492 92.2648 38.9409 91.8555C31.3225 90.9106 29.0018 83.1832 27.4549 77.2642C27.1631 76.1719 25.6414 72.3729 26.7372 71.3267Z" fill="white"/>
<path d="M57.9747 95.3415C56.9886 95.7884 55.9956 96.1761 54.976 96.536C52.7409 97.3362 50.5101 98.1177 48.1831 98.6193C44.2212 99.4844 40.1525 100.615 36.1066 100.007C34.2944 99.7274 32.5952 99.067 31.0669 98.1668C28.1252 96.4048 25.8481 93.8206 24.029 91.0751C21.8989 87.8552 20.3385 84.2944 19.4898 80.5636C19.2488 79.4835 19.0297 78.3448 18.9229 77.2014C18.8181 75.9962 18.8258 74.7863 19.0696 73.6075C19.2337 72.827 19.8085 71.6795 20.6516 71.2982C22.155 70.6298 21.75 74.6626 21.797 75.2798C22.0474 77.9415 22.6978 80.7467 23.6599 83.2384C24.7849 86.1491 26.3769 88.896 28.4018 91.3221C30.9191 94.3302 34.4108 96.7458 38.652 97.1341C43.7295 97.5981 48.6713 95.8852 53.4841 94.4267C53.7462 94.3457 55.6336 93.7289 57.0127 93.3661C57.7816 93.1628 58.392 93.0382 58.4587 93.1424C58.7477 93.6404 59.2157 94.2027 59.2338 94.7842C58.8091 94.9976 58.3908 95.1654 57.9747 95.3415ZM76.3022 116.037C75.4126 115.871 74.9287 114.735 74.5266 114.102C72.2689 110.489 65.6122 96.1148 65.6122 96.1148C64.1658 92.8639 62.7634 89.6009 61.3764 86.3248C56.5668 75.0389 51.6313 63.7089 47.2932 52.3104C44.23 44.2627 41.7052 34.351 44.5795 25.7599C44.8819 24.8625 45.666 22.6857 47.0097 22.7791L47.5448 23.0691C47.9422 23.616 47.7779 24.3614 47.6551 24.9817C47.2289 27.2874 47.3129 29.7237 47.3633 32.0379C47.5393 42.9912 52.0494 52.9506 55.7111 63.0652C60.3714 75.9415 76.9903 113.134 76.9903 113.134C77.3579 113.917 78.3112 116.411 76.3022 116.037ZM84.5541 113.709C83.6052 113.603 83.4738 112.851 83.1773 112.154C79.9798 104.651 77.3613 96.9096 74.3752 89.3132C72.8462 85.3849 71.3525 81.4469 69.9182 77.4837C64.7066 63.1927 59.8274 48.7663 55.2677 34.2606C54.8446 32.8981 54.4655 31.5235 54.0952 30.1464C53.4941 27.9666 52.9359 25.5298 52.663 23.2681C52.5664 22.402 52.5089 21.884 53.4176 21.3971C54.8236 20.6505 55.6663 22.1248 56.2463 23.0589C59.3331 28.0631 60.8324 34.1877 62.4462 39.7643C66.5654 53.9452 70.7332 68.1301 75.6411 82.076C78.9039 91.329 82.2551 100.593 85.17 109.959C85.4229 110.773 86.4652 113.899 84.5541 113.709ZM86.8864 76.4366C89.3233 86.4426 92.1397 96.4489 93.2942 106.721C93.3793 107.477 93.7067 108.664 93.112 109.327C91.7536 110.831 90.9567 108.285 90.7543 107.448C90.7543 107.448 81.9511 68.5113 77.5836 55.5279C74.1511 45.3502 71.7668 36.2574 64.1523 27.0404C62.6618 25.2458 61.2894 23.2261 59.5022 21.6621C59.0282 21.2502 58.4282 20.7592 58.4031 20.0835L58.6498 19.534C59.6383 18.6488 61.6291 19.8852 62.419 20.4114C70.0497 25.4578 75.287 34.3064 78.6076 45.0752C82.1407 56.5119 84.0647 64.795 86.8864 76.4366ZM87.427 59.6928C87.4422 59.6449 87.4309 59.5693 87.4461 59.5213C87.5719 59.049 88.1783 58.5317 88.5341 58.206C88.6637 58.0915 88.7999 57.9664 88.9317 57.86C93.4721 53.7633 100.201 49.6934 101.408 43.6189C102.091 40.1133 100.433 36.3694 99.5702 32.9663C98.4403 28.5253 96.9561 24.2433 96.3043 19.6792C96.2017 18.9635 95.1663 11.5644 97.3989 12.6117C98.5528 13.1512 98.4496 15.184 98.6464 16.2413C98.9542 17.9419 99.3853 19.6085 99.8605 21.263C100.775 24.4767 101.884 27.637 102.693 30.8798C103.102 32.535 103.643 34.1538 104.094 35.7887C105.891 42.3039 104.935 47.8453 99.259 52.6051C96.4377 54.9586 94.0693 57.476 91.0331 59.6349C90.6528 59.9061 90.1407 60.3186 89.6106 60.6311C89.153 60.8973 88.6732 61.1172 88.2318 61.0639C87.9582 61.0343 87.7632 60.843 87.632 60.6079C87.4674 60.3206 87.4019 59.9799 87.427 59.6928Z" fill="white"/>
<path d="M112.914 28.4725C114.265 34.5416 116.001 40.8023 114.623 47.1165C113.884 50.4887 111.978 53.2026 109.765 55.9397C105.826 60.842 100.698 64.7331 95.6466 68.5593C94.9168 69.1106 93.2647 70.5465 91.9936 70.8883C91.2358 71.0973 90.6151 70.9096 90.3922 69.9295C90.2482 69.304 90.4303 68.6236 90.9621 68.1794C91.0874 68.0836 91.2104 67.9796 91.3357 67.8838C91.9092 67.4193 92.5137 66.9638 93.0828 66.483C94.7964 64.9951 96.5986 63.5879 98.3521 62.1415C102.525 58.7064 107.225 54.8108 109.563 50.0173L109.721 49.6939C110.109 48.834 110.429 47.9667 110.688 47.0814C111.769 43.3698 111.672 39.5104 111.046 35.7969C110.16 30.5536 108.947 25.2604 107.106 20.2714C106.461 18.5151 105.729 16.7912 104.828 15.1404C104.628 14.793 104.384 14.4227 104.12 14.0492C103.476 13.124 102.737 12.1287 102.596 11.1699C102.489 10.4729 102.693 9.73394 103.575 9.7357C106.813 9.71802 108.961 15.4099 109.853 17.6145C111.283 21.115 112.092 24.8043 112.914 28.4725Z" fill="white"/>
<path d="M115.098 11.1881C112.27 5.85003 106.612 2.59627 99.3978 4.55962C93.7538 6.09856 89.4592 10.8802 89.0904 15.5944C88.6725 20.646 91.7487 27.6749 93.0894 32.3991C94.0288 35.7023 95.1896 38.2268 94.7051 41.7651C94.3211 44.6017 92.6694 47.0703 90.7451 49.2727C89.7423 50.4157 88.7328 51.5343 87.7123 52.6472C82.97 32.494 77.1481 10.1791 53.7339 16.8023C27.6896 24.1684 36.4435 48.5193 42.493 62.7543C44.4976 67.4792 47.772 74.4359 51.246 81.6352C49.7129 82.093 48.2749 82.5858 47.6401 82.6908C45.9606 82.9614 44.1321 82.9668 42.6661 82.1895C40.8929 81.2606 40.5503 79.6746 39.5421 78.1847C37.2904 74.902 35.8459 71.1079 32.6904 68.4334C30.7816 66.8067 28.4598 66.0203 25.8172 65.9963L25.7113 65.9905C17.2245 66.1603 13.1276 74.1346 14.1986 81.1125C15.0622 86.651 18.0192 92.2161 21.8475 96.368C24.9067 99.6906 28.6176 103.245 33.2906 104.477C41.8989 106.742 52.023 102.882 60.1052 99.629C60.3302 100.101 60.5617 100.562 60.7865 100.999C63.901 107.238 66.2874 114.895 69.3693 116.925C72.6946 119.115 79.3369 120.749 85.5667 119.031C92.8012 117.036 96.4161 112.678 97.5896 107.891C98.3581 104.729 96.9009 96.2475 96.0387 91.5051C95.3485 87.6956 94.4397 82.8873 93.451 77.961C97.4165 75.0119 106.923 67.8127 113.458 61.9406C121.891 54.3548 121.796 45.1385 121.313 39.3638C120.836 33.5786 118.121 16.8923 115.098 11.1881ZM26.7372 71.3267C26.9019 71.1675 27.1399 71.1019 27.4843 71.1819C28.1423 71.3331 28.726 72.59 28.9843 73.114C29.6702 74.5353 30.2525 75.9939 30.846 77.4582C32.4724 81.4647 33.8823 86.3711 38.2879 88.4558C40.967 89.7126 44.1044 89.4337 46.9886 88.7522C47.6738 88.5894 51.1774 87.3344 53.6374 86.5247C54.9677 86.0879 56.003 85.7849 56.0541 85.8671C56.485 86.5359 57.1809 87.2368 56.4184 87.8759C55.9394 88.2706 55.3851 88.5985 54.7931 88.8931C52.9577 89.8018 50.6836 90.2889 48.8795 90.7952C45.6545 91.7195 42.2492 92.2648 38.941 91.8555C31.3225 90.9106 29.0019 83.1832 27.4549 77.2643C27.1632 76.1719 25.6414 72.3729 26.7372 71.3267ZM57.9747 95.3415C56.9886 95.7885 55.9956 96.1761 54.976 96.536C52.7408 97.3362 50.51 98.1177 48.1831 98.6194C44.2212 99.4844 40.1524 100.615 36.1066 100.007C34.2944 99.7275 32.5952 99.067 31.0669 98.1668C28.1252 96.4048 25.848 93.8207 24.0289 91.0752C21.8989 87.8552 20.3385 84.2944 19.4898 80.5636C19.2488 79.4835 19.0296 78.3449 18.9229 77.2015C18.8181 75.9963 18.8258 74.7863 19.0696 73.6075C19.2337 72.8271 19.8085 71.6795 20.6515 71.2982C22.155 70.6298 21.75 74.6626 21.797 75.2798C22.0474 77.9415 22.6978 80.7468 23.6599 83.2385C24.7849 86.1491 26.3768 88.896 28.4018 91.3222C30.9191 94.3302 34.4108 96.7458 38.652 97.1341C43.7295 97.5982 48.6713 95.8853 53.484 94.4267C53.7461 94.3457 55.6336 93.7289 57.0127 93.3661C57.7816 93.1628 58.392 93.0383 58.4586 93.1424C58.7477 93.6404 59.2157 94.2028 59.2338 94.7842C58.8091 94.9976 58.3907 95.1655 57.9747 95.3415ZM76.3022 116.037C75.4126 115.871 74.9287 114.735 74.5265 114.102C72.2689 110.489 65.6122 96.1148 65.6122 96.1148C64.1658 92.8639 62.7634 89.6009 61.3764 86.3249C56.5668 75.0389 51.6313 63.7089 47.2932 52.3105C44.2299 44.2627 41.7052 34.351 44.5795 25.7599C44.8819 24.8625 45.666 22.6857 47.0097 22.7791L47.5448 23.0691C47.9421 23.616 47.7779 24.3615 47.6551 24.9818C47.2289 27.2874 47.3129 29.7237 47.3632 32.0379C47.5393 42.9912 52.0494 52.9506 55.7111 63.0652C60.3714 75.9415 76.9903 113.134 76.9903 113.134C77.3578 113.917 78.3111 116.411 76.3022 116.037ZM84.5541 113.709C83.6052 113.603 83.4738 112.851 83.1772 112.154C79.9798 104.651 77.3613 96.9096 74.3751 89.3133C72.8462 85.3849 71.3525 81.4469 69.9182 77.4837C64.7066 63.1927 59.8274 48.7663 55.2677 34.2606C54.8446 32.8981 54.4655 31.5235 54.0952 30.1464C53.4941 27.9666 52.9359 25.5298 52.663 23.2681C52.5664 22.402 52.5088 21.884 53.4176 21.3971C54.8236 20.6505 55.6663 22.1248 56.2463 23.0589C59.333 28.0631 60.8324 34.1877 62.4461 39.7644C66.5654 53.9452 70.7332 68.1301 75.641 82.076C78.9039 91.329 82.2551 100.593 85.1699 109.959C85.4229 110.773 86.4652 113.9 84.5541 113.709ZM86.8863 76.4366C89.3233 86.4426 92.1397 96.4489 93.2942 106.721C93.3792 107.477 93.7067 108.664 93.112 109.327C91.7536 110.831 90.9567 108.285 90.7543 107.448C90.7543 107.448 81.951 68.5113 77.5836 55.528C74.1511 45.3502 71.7668 36.2575 64.1522 27.0404C62.6618 25.2458 61.2893 23.2261 59.5021 21.6622C59.0282 21.2502 58.4282 20.7592 58.4031 20.0835L58.6498 19.5341C59.6383 18.6488 61.6291 19.8853 62.419 20.4114C70.0497 25.4578 75.287 34.3064 78.6076 45.0752C82.1407 56.5119 84.0647 64.795 86.8863 76.4366ZM87.427 59.6929C87.4422 59.6449 87.4309 59.5693 87.4461 59.5213C87.5718 59.049 88.1782 58.5317 88.5341 58.206C88.6637 58.0915 88.7999 57.9664 88.9317 57.86C93.4721 53.7634 100.201 49.6934 101.408 43.6189C102.091 40.1133 100.433 36.3694 99.5702 32.9663C98.4403 28.5253 96.956 24.2433 96.3042 19.6792C96.2017 18.9636 95.1663 11.5644 97.3989 12.6117C98.5527 13.1513 98.4496 15.184 98.6463 16.2413C98.9541 17.9419 99.3853 19.6085 99.8605 21.263C100.775 24.4767 101.884 27.637 102.693 30.8799C103.102 32.5351 103.643 34.1538 104.094 35.7887C105.891 42.3039 104.934 47.8453 99.259 52.6051C96.4377 54.9586 94.0693 57.476 91.0331 59.6349C90.6528 59.9061 90.1407 60.3186 89.6106 60.6311C89.153 60.8974 88.6732 61.1172 88.2318 61.0639C87.9581 61.0343 87.7632 60.843 87.6319 60.6079C87.4674 60.3207 87.4019 59.9799 87.427 59.6929ZM112.914 28.4725C114.265 34.5416 116.001 40.8023 114.623 47.1165C113.884 50.4887 111.978 53.2026 109.765 55.9397C105.826 60.842 100.698 64.7331 95.6466 68.5593C94.9168 69.1106 93.2647 70.5465 91.9936 70.8883C91.2358 71.0973 90.6151 70.9096 90.3922 69.9295C90.2482 69.304 90.4303 68.6236 90.9621 68.1794C91.0874 68.0836 91.2104 67.9796 91.3357 67.8838C91.9092 67.4193 92.5137 66.9638 93.0828 66.483C94.7964 64.9952 96.5986 63.5879 98.3521 62.1416C102.525 58.7064 107.225 54.8108 109.563 50.0173L109.721 49.6939C110.109 48.834 110.429 47.9667 110.688 47.0814C111.769 43.3698 111.672 39.5105 111.046 35.797C110.16 30.5536 108.947 25.2604 107.106 20.2714C106.461 18.5151 105.729 16.7913 104.828 15.1404C104.628 14.793 104.384 14.4227 104.12 14.0492C103.476 13.124 102.737 12.1287 102.596 11.1699C102.489 10.4729 102.693 9.73395 103.575 9.73571C106.813 9.71803 108.961 15.4099 109.853 17.6145C111.283 21.115 112.092 24.8043 112.914 28.4725Z" fill="#757F3F"/>
</g>
<defs>
<clipPath id="clip0_160_740">
<rect width="117" height="108" fill="white" transform="translate(0 31.1042) rotate(-15.4173)"/>
</clipPath>
</defs>
</svg>
