<svg width="100" height="100" viewBox="0 0 100 100" fill="none" xmlns="http://www.w3.org/2000/svg">
<path d="M49.2338 18.326C39.0519 18.4633 29.5972 21.4239 22.1148 25.851L24.8904 30.1015L22.0061 31.9781L19.2245 27.7085C18.8128 27.9821 18.409 28.2747 18.0129 28.5672C10.6686 34.0069 6.09687 40.9216 5.49817 47.3423C6.08581 48.6169 7.09743 50.6707 8.39359 52.8163C10.4944 56.291 13.5063 59.7534 15.6141 60.3375C19.0373 59.8128 22.0623 56.0201 25.1892 56.5139C30.0062 57.4252 32.5544 61.851 34.94 65.5707C36.7573 68.3219 39.0679 72.1575 42.3261 72.4581C43.5145 72.576 44.5431 72.1985 45.7003 71.4172C46.8572 70.6167 48.0658 69.3945 49.3303 68.0566C51.8212 65.4005 54.552 62.0712 58.7173 61.4981C61.6404 61.0759 64.0156 62.6135 66.0412 63.773C68.0474 64.9136 69.6465 65.6769 70.9438 65.3531L70.963 65.3529C73.0734 64.2907 74.1401 62.4769 75.1328 60.8556L68.2538 56.0862L70.2065 53.2651L77.1435 58.072C78.1053 57.0062 79.2995 56.1287 80.8834 55.7627C83.0779 55.2546 84.7975 56.4374 86.0906 57.2239C87.3647 58.0107 88.2505 58.4007 88.7468 58.2983C89.3385 58.1755 90.9871 56.9281 92.1753 55.6104C92.5524 55.1842 92.9104 54.7583 93.1925 54.3907C93.662 52.2979 93.8811 50.0936 93.8499 47.7778C93.846 47.4907 93.823 47.2039 93.8194 46.9359L86.6714 50.6119L85.0985 47.5321L93.1587 43.3652C91.5527 37.8356 87.1315 32.2099 80.7157 27.7214C72.5992 22.0308 61.387 18.1621 49.2338 18.326ZM62.4954 20.8654L63.6876 24.1035L54.1075 27.6975L52.9153 24.4593L62.4954 20.8654ZM35.6911 23.3326L42.1083 25.0837L41.1957 28.3885L34.7788 26.6565L35.6911 23.3326ZM71.0426 27.2585L78.712 32.4383L76.798 35.2972L69.1286 30.1174L71.0426 27.2585ZM61.9655 29.8311L64.0697 32.5593L57.8171 37.3335L55.7129 34.6054L61.9655 29.8311ZM32.0052 36.7436L32.5488 40.1436L23.8393 41.5819L23.2957 38.1819L32.0052 36.7436ZM49.4883 37.197C52.895 37.151 56.0038 37.7216 58.4114 38.8186C60.8187 39.8963 62.8329 41.6303 62.8665 44.1183C62.9 46.6064 60.9333 48.394 58.5559 49.5363C56.1788 50.6978 53.0866 51.3521 49.6799 51.398C46.2731 51.444 43.1644 50.8733 40.7568 49.7764C38.3495 48.6986 36.3353 46.9647 36.3017 44.4766C36.2681 41.9886 38.2348 40.201 40.6122 39.0586C42.9894 37.8972 46.0816 37.2429 49.4883 37.197ZM77.4838 37.8913L78.4091 41.2096L69.4071 43.6664L68.4818 40.3481L77.4838 37.8913ZM49.5348 40.642C46.5491 40.6822 43.8774 41.2925 42.1089 42.1586C40.3209 43.0059 39.7403 43.9517 39.7467 44.4302C39.7532 44.9086 40.3591 45.8384 42.1693 46.6371C43.9605 47.4553 46.6477 47.9933 49.6334 47.953C52.6191 47.9127 55.2908 47.3024 57.0593 46.4363C58.8473 45.5891 59.4279 44.6433 59.4215 44.1648C59.415 43.6863 58.8091 42.7565 56.9989 41.9578C55.2076 41.1397 52.5205 40.6017 49.5348 40.642ZM12.3676 44.5889L20.0132 47.4337L18.8125 50.6658L11.1669 47.821L12.3676 44.5889ZM6.39778 56.1357C8.22367 62.9257 12.5342 68.438 18.5935 72.6059C26.6484 78.1251 37.8492 81.1517 50.0789 80.9867C62.3087 80.8218 73.4238 77.4942 81.3288 71.7598C85.3287 68.8536 88.5356 65.3456 90.6818 61.2584C90.3013 61.4358 89.9012 61.5752 89.4812 61.6575C87.2864 62.1465 85.5666 60.9446 84.2926 60.1578C82.9997 59.3904 82.133 59.0001 81.6561 59.1214C80.2822 59.4462 79.1165 61.0124 77.7671 63.1554C76.3984 65.2796 74.846 67.9804 71.7548 68.7112C68.8545 69.4012 66.3846 67.9414 64.3204 66.7633C62.2755 65.5849 60.56 64.7083 59.2034 64.8989C56.001 65.8992 53.6621 68.4767 51.8315 70.4156C50.5483 71.7921 49.2272 73.1881 47.6529 74.2622C46.0785 75.3362 44.1742 76.0702 42.0281 75.9077C36.8862 75.0391 34.4614 71.2433 32.0362 67.4284C29.6313 63.6898 27.4436 60.446 24.5456 59.8917C20.9744 60.5141 18.5569 64.6432 14.692 63.6425C11.1507 62.6565 8.50753 59.4188 6.39778 56.1357ZM49.2072 56.0943L49.7508 59.4943L40.1239 61.0406L39.5803 57.6406L49.2072 56.0943Z" fill="#F09F6B"/>
</svg>
