<svg width="81" height="59" viewBox="0 0 81 59" fill="none" xmlns="http://www.w3.org/2000/svg">
<path fill-rule="evenodd" clip-rule="evenodd" d="M14.9486 1.20899C13.9569 0.763254 12.8287 0.72968 11.8123 1.11566C10.7958 1.50164 9.97429 2.27556 9.5284 3.26719L0.6601 22.9595C0.213837 23.9502 0.179078 25.0775 0.563459 26.0938C0.947841 27.1101 1.71992 27.9323 2.7101 28.3797L8.8191 31.1308C9.30986 31.3524 9.83947 31.4752 10.3777 31.4921C10.9159 31.509 11.4522 31.4197 11.9559 31.2293C12.4596 31.039 12.9208 30.7512 13.3133 30.3826C13.7058 30.0139 14.0219 29.5716 14.2434 29.0808L23.1117 9.38439C23.558 8.3937 23.5927 7.26638 23.2083 6.25007C22.824 5.23377 22.0519 4.4116 21.0617 3.96419L14.9486 1.20899ZM7.6793 25.5138C8.01366 25.6646 8.37444 25.748 8.74104 25.7593C9.10763 25.7706 9.47288 25.7096 9.8159 25.5798C10.1589 25.45 10.473 25.2539 10.7403 25.0027C11.0075 24.7514 11.2226 24.4501 11.3734 24.1157C11.5242 23.7813 11.6076 23.4206 11.6189 23.054C11.6302 22.6874 11.5692 22.3221 11.4394 21.9791C11.3096 21.6361 11.1135 21.322 10.8623 21.0547C10.611 20.7875 10.3097 20.5724 9.9753 20.4216C9.30003 20.1171 8.53147 20.0934 7.83869 20.3556C7.14591 20.6178 6.58567 21.1444 6.2812 21.8197C5.97673 22.495 5.95298 23.2635 6.21518 23.9563C6.47737 24.6491 7.00403 25.2093 7.6793 25.5138ZM77.9615 28.9168C78.4649 28.7257 78.9258 28.4373 79.3178 28.0681C79.7098 27.6989 80.0252 27.256 80.2461 26.7649C80.4669 26.2737 80.5888 25.7439 80.6048 25.2056C80.6208 24.6674 80.5307 24.1312 80.3395 23.6278L72.693 3.43939C72.5023 2.93556 72.2142 2.47425 71.8451 2.08182C71.4761 1.68939 71.0333 1.37354 70.5421 1.15231C70.0509 0.931089 69.521 0.808832 68.9825 0.792528C68.4441 0.776224 67.9077 0.866194 67.404 1.05729L61.1433 3.43119C60.6398 3.62228 60.1789 3.91067 59.7869 4.2799C59.3949 4.64913 59.0795 5.09196 58.8587 5.58311C58.6379 6.07425 58.516 6.60409 58.4999 7.14236C58.4839 7.68063 58.5741 8.21678 58.7653 8.72019L66.4159 28.9127C66.801 29.9292 67.5741 30.7512 68.5651 31.1979C69.5562 31.6446 70.6841 31.6795 71.7008 31.2948L77.9615 28.9168ZM65.9198 6.59229C65.5768 6.72232 65.2628 6.91863 64.9957 7.17001C64.7286 7.42139 64.5136 7.72292 64.363 8.05739C64.2125 8.39185 64.1292 8.75269 64.1181 9.11932C64.107 9.48595 64.1682 9.85117 64.2982 10.1941C64.4283 10.5371 64.6246 10.8511 64.876 11.1182C65.1273 11.3853 65.4289 11.6003 65.7633 11.7509C66.0978 11.9015 66.4586 11.9847 66.8253 11.9958C67.1919 12.0069 67.5571 11.9457 67.9001 11.8157C68.5928 11.5531 69.1527 11.0261 69.4568 10.3506C69.7609 9.67513 69.7842 8.90651 69.5216 8.21384C69.259 7.52118 68.732 6.9612 68.0565 6.6571C67.3811 6.353 66.6124 6.32969 65.9198 6.59229Z" fill="#F09F6B"/>
<path fill-rule="evenodd" clip-rule="evenodd" d="M61.0285 7.83869H61.0613C61.3297 7.81527 61.5909 7.73921 61.8299 7.61486C62.0689 7.49051 62.2811 7.3203 62.4543 7.11395C62.6275 6.9076 62.7584 6.66915 62.8395 6.41222C62.9206 6.15528 62.9502 5.8849 62.9268 5.61649C62.9034 5.34809 62.8273 5.08693 62.703 4.84792C62.5786 4.60891 62.4084 4.39674 62.2021 4.22351C61.9957 4.05028 61.7573 3.91939 61.5003 3.83832C61.2434 3.75724 60.973 3.72757 60.7046 3.75099H60.6718L60.5652 3.76329L60.1675 3.80429L58.7202 3.94369C57.5025 4.06669 55.8174 4.25939 53.956 4.50539C50.2865 4.98919 45.7396 5.72719 42.763 6.71939C41.3198 7.19909 39.7946 8.12979 38.335 9.19579C36.8549 10.2782 35.3215 11.5943 33.8537 12.9596C31.2486 15.4167 28.76 17.9943 26.3958 20.684C24.6779 22.6274 24.2802 25.727 26.2974 27.9246C27.6094 29.3432 29.6594 31.139 32.3162 31.9426C35.0919 32.7749 38.2899 32.451 41.5576 30.0238L45.6535 27.3793L45.7273 27.3342C46.3136 27.6909 47.1295 28.3059 48.1053 29.1218C49.1713 30.0156 50.3275 31.0693 51.4058 32.082C52.6297 33.2355 53.8325 34.411 55.0138 35.608L55.2393 35.8417L55.2967 35.8991L55.3172 35.9196L55.5591 36.1656L55.8666 36.3255C57.5189 37.1455 59.3352 36.8503 60.7456 36.3747C62.2134 35.8827 63.673 35.0463 64.9153 34.2222C66.4708 33.1756 67.9442 32.0119 69.3228 30.7413L69.3966 30.6757L69.4171 30.6552L69.4212 30.6511C69.4212 30.6511 69.0604 29.3801 67.65 27.8959L66.5389 29.2899L65.6 32L55.3172 35.9196L57.4 34.05L56.3012 31.1103C55.6139 30.4334 54.9196 29.7637 54.2184 29.1013C53.1114 28.0599 51.8896 26.9488 50.7334 25.9853C49.6141 25.0423 48.4497 24.1485 47.478 23.6155C45.8626 22.7299 44.28 23.3859 43.4272 23.9394L39.2124 26.6618L39.155 26.7028C36.8795 28.4084 35.0099 28.474 33.497 28.0189C31.857 27.5269 30.4015 26.3297 29.315 25.1489C28.9747 24.7799 28.8763 24.0706 29.4667 23.4023C31.7425 20.8113 34.1382 18.3281 36.6458 15.9608C38.0439 14.6611 39.4461 13.4598 40.754 12.5045C42.0906 11.5287 43.214 10.8932 44.0627 10.6103C46.6211 9.75749 50.8072 9.05639 54.4931 8.56849C56.5087 8.30364 58.529 8.07537 60.5529 7.88379L60.9342 7.84689L61.0285 7.83869Z" fill="#F09F6B"/>
<path d="M57.9207 32.7257C57.3852 32.1829 56.8453 31.6444 56.3012 31.1103L57.4 34.05L55.3172 35.9237L65.6 32L66.5389 29.294L67.65 27.9L66.6045 27.6786L66.5922 27.6868L66.5348 27.7401L66.3134 27.9451C65.1597 28.9861 63.9334 29.9438 62.6439 30.811C61.5369 31.549 60.4176 32.164 59.4336 32.492C58.671 32.7503 58.1954 32.7708 57.9207 32.7257Z" fill="#F09F6B"/>
<path fill-rule="evenodd" clip-rule="evenodd" d="M20.6927 11.7788L19.885 9.89281L19.0773 8.00681L19.2413 7.94121L19.7046 7.74441C21.9777 6.77926 24.2602 5.83622 26.5516 4.91541C28.4127 4.16448 30.2881 3.44958 32.1768 2.77111C33.0091 2.47591 33.784 2.22171 34.4318 2.03721C34.9894 1.87321 35.7028 1.69281 36.285 1.69281C36.818 1.69281 37.3797 1.81581 37.843 1.93881C38.3432 2.07411 38.8926 2.25451 39.4502 2.45951C40.5736 2.86951 41.8405 3.40251 43.0131 3.91911C44.3808 4.5303 45.7368 5.16728 47.0803 5.82971L47.3509 5.96091L47.4247 5.99781L47.4493 6.01011C47.9359 6.25314 48.3061 6.67952 48.4783 7.19545C48.6505 7.71138 48.6108 8.2746 48.3677 8.76121C48.1247 9.24782 47.6983 9.61795 47.1824 9.79018C46.6665 9.96242 46.1032 9.92264 45.6166 9.67961L45.5961 9.66731L45.5305 9.63451L45.2763 9.51151C43.977 8.87262 42.6662 8.25752 41.3444 7.66651C40.2624 7.17898 39.1643 6.72773 38.0521 6.31351C37.6356 6.15975 37.2129 6.02297 36.7852 5.90351C36.6249 5.8581 36.462 5.8225 36.2973 5.79691L36.2604 5.80511C36.1784 5.81741 35.9611 5.86251 35.5552 5.97731C34.8766 6.17796 34.204 6.39808 33.538 6.63741C31.9472 7.19911 29.9915 7.95761 28.0768 8.72431C25.811 9.63183 23.5545 10.5626 21.3077 11.5164L20.8526 11.7091L20.6927 11.7788ZM17.999 10.7005C17.7856 10.2008 17.7793 9.63687 17.9815 9.13254C18.1837 8.62822 18.5779 8.2248 19.0773 8.01091L19.885 9.89691L20.6927 11.7788C20.4451 11.8851 20.1789 11.9415 19.9094 11.9449C19.64 11.9482 19.3725 11.8983 19.1223 11.7982C18.8721 11.698 18.6441 11.5495 18.4514 11.3612C18.2586 11.1728 18.1049 10.9483 17.999 10.7005ZM10.1967 26.9365C10.3816 26.7407 10.6033 26.5833 10.8491 26.4732C11.0948 26.3632 11.3599 26.3026 11.6291 26.295C11.8983 26.2873 12.1663 26.3328 12.4179 26.4289C12.6695 26.5249 12.8997 26.6695 13.0954 26.8545L11.685 28.3428L10.2787 29.8352C10.0829 29.6503 9.92552 29.4286 9.81544 29.1829C9.70537 28.9371 9.64479 28.672 9.63717 28.4029C9.62956 28.1337 9.67505 27.8656 9.77106 27.614C9.86707 27.3624 10.0117 27.1322 10.1967 26.9365ZM28.9337 40.8232L40.262 45.0708C41.3676 45.4851 42.569 45.5723 43.7227 45.3222C44.8765 45.0721 45.934 44.4952 46.7687 43.6604L55.3377 35.0914C55.7227 34.707 56.2445 34.4913 56.7885 34.4917C57.3325 34.4921 57.8541 34.7085 58.2385 35.0935C58.6229 35.4784 58.8386 36.0003 58.8382 36.5443C58.8378 37.0883 58.6214 37.6098 58.2364 37.9942L49.6674 46.5632C48.2755 47.9537 46.5129 48.9141 44.5899 49.33C42.667 49.7458 40.665 49.5995 38.8229 48.9084L27.2609 44.5747L27.1666 44.5296C26.5398 44.1831 25.9444 43.7825 25.3872 43.3324C24.723 42.8199 23.944 42.1844 23.1035 41.4669C21.2217 39.8579 19.3655 38.219 17.5357 36.551C15.3 34.5202 13.0818 32.4701 10.8814 30.401L10.4345 29.9828L10.2787 29.8352L11.685 28.3428L13.0954 26.8545L13.2471 26.998L13.6858 27.4121C15.8692 29.4639 18.0696 31.4976 20.2868 33.5129C22.1728 35.2226 24.1203 36.9569 25.7521 38.3427C26.5721 39.0356 27.2978 39.626 27.8841 40.0811C28.4253 40.4952 28.7656 40.7248 28.9337 40.8191M15.047 49.5808C15.3956 49.1652 15.8946 48.9047 16.4348 48.8563C16.9751 48.8078 17.5125 48.9755 17.9293 49.3225L21.8612 52.6025C22.7424 53.3381 23.8118 53.8125 24.9485 53.9719L30.0161 54.6853C30.2888 54.7152 30.5526 54.7995 30.7921 54.9332C31.0315 55.0669 31.2417 55.2473 31.4102 55.4637C31.5787 55.6801 31.702 55.9282 31.7729 56.1931C31.8438 56.458 31.8609 56.7345 31.823 57.0061C31.7851 57.2777 31.6932 57.539 31.5525 57.7745C31.4118 58.0099 31.2254 58.2147 31.0041 58.3768C30.7829 58.5389 30.5314 58.6549 30.2645 58.7181C29.9976 58.7812 29.7207 58.7901 29.4503 58.7443L24.3786 58.035C22.4839 57.7689 20.7015 56.9779 19.2331 55.7513L15.3012 52.4713C15.0942 52.2986 14.9233 52.0868 14.7983 51.848C14.6733 51.6092 14.5966 51.3481 14.5726 51.0796C14.5486 50.8112 14.5778 50.5406 14.6585 50.2834C14.7392 50.0262 14.8698 49.7875 15.0429 49.5808" fill="#F09F6B"/>
</svg>
