<svg width="65" height="65" viewBox="0 0 65 65" fill="none" xmlns="http://www.w3.org/2000/svg">
<g clip-path="url(#clip0_152_606)">
<path d="M23.4306 33.2495C23.8409 35.0264 21.8915 36.377 20.3751 35.429L15.2035 32.1974L8.74577 42.5316C7.05933 45.23 9.00856 48.7501 12.189 48.7501H18.789C19.6304 48.7501 20.3125 49.4322 20.3125 50.2735V55.3516C20.3125 56.1929 19.6304 56.8751 18.789 56.8751H12.2021C2.63818 56.8751 -3.1976 46.3319 1.86707 38.2282L8.31908 27.8957L3.14892 24.665C1.6152 23.7069 2.01065 21.3692 3.76832 20.9633L17.7633 17.7324C18.8564 17.48 19.947 18.1616 20.1994 19.2545L23.4306 33.2495ZM35.9432 10.0278L41.185 18.4164L36.0129 21.6482C34.483 22.6039 34.8703 24.9431 36.6323 25.3499L50.6272 28.5809C51.7282 28.8347 52.8127 28.1444 53.0633 27.0587L56.2943 13.0638C56.7001 11.3063 54.7721 9.92564 53.2388 10.8843L48.0734 14.1119L42.835 5.7226C38.0716 -1.89877 26.9393 -1.91629 22.165 5.7226L19.8845 9.37454C19.4389 10.088 19.656 11.0276 20.3695 11.4735L24.6756 14.1642C25.3891 14.6101 26.329 14.3931 26.7749 13.6796L29.0551 10.0306C30.6689 7.44828 34.3837 7.5327 35.9432 10.0278ZM63.1322 38.2282L59.6391 32.634C59.1934 31.9201 58.2533 31.7029 57.5396 32.1489L53.2408 34.8351C52.5273 35.281 52.3102 36.2208 52.7561 36.9344L56.2554 42.5346C57.9384 45.2274 55.9943 48.7502 52.8104 48.7502H40.625V42.6589C40.625 40.8545 38.436 39.9442 37.1575 41.2226L27.0012 51.3765C26.2079 52.1697 26.2079 53.4558 27.0012 54.249L37.1575 64.4039C38.4273 65.6739 40.625 64.7842 40.625 62.9674V56.8751H52.7972C62.3535 56.8751 68.2011 46.3383 63.1322 38.2282Z" fill="#F09F6B"/>
</g>
<defs>
<clipPath id="clip0_152_606">
<rect width="65" height="65" fill="white"/>
</clipPath>
</defs>
</svg>
