<svg width="133" height="131" viewBox="0 0 133 131" fill="none" xmlns="http://www.w3.org/2000/svg">
<path d="M74.5706 78.176C76.5127 77.5419 78.2579 76.4517 79.6575 74.9982C81.057 73.5447 82.0693 71.7712 82.608 69.8289C82.8229 69.0492 82.8028 68.2195 82.5501 67.4391C82.2974 66.6588 81.8229 65.9609 81.1833 65.4291C83.1413 64.8072 84.9024 63.7199 86.313 62.262C87.7236 60.8042 88.7408 59.0202 89.2758 57.0657C89.4947 56.2704 89.4713 55.4238 89.2086 54.6293C88.9459 53.8349 88.4553 53.127 87.7966 52.5922C85.5428 50.7684 82.7587 49.7104 79.875 49.5821C82.8261 48.5776 85.2646 46.5225 86.718 43.8152C87.6479 41.9928 88.0984 39.9612 88.0295 37.9015C87.9606 35.8418 87.3743 33.818 86.323 32.0105C85.9158 31.2711 85.2967 30.6621 84.5446 30.2612C83.7926 29.8602 82.9416 29.6855 82.1004 29.7594C80.0022 29.9211 77.9905 30.5916 76.2445 31.711C74.4985 32.8304 73.0725 34.3639 72.0935 36.175C70.6871 38.9154 70.4015 42.1034 71.2941 45.0992C69.5525 42.7945 67.0895 41.1105 64.2986 40.3163C63.4837 40.0758 62.6207 40.0747 61.8175 40.3132C61.0142 40.5517 60.3062 41.0191 59.7818 41.6572C58.4799 43.2075 57.5916 45.0566 57.1944 47.0436C56.7971 49.0307 56.9029 51.0953 57.5026 53.0577C56.7045 52.8409 55.8654 52.8542 55.0867 53.0961C54.3079 53.3379 53.6228 53.7979 53.114 54.4205C51.821 55.965 50.9366 57.8041 50.5365 59.7802C50.1364 61.7563 50.2325 63.8104 50.8167 65.7664C50.0158 65.5741 49.1818 65.605 48.4092 65.8555C47.6367 66.106 46.9566 66.5662 46.4461 67.1837C45.2466 68.5757 44.3914 70.2252 43.945 72.0078C43.4985 73.7904 43.4724 75.6596 43.8687 77.4745C44.2649 79.2893 45.0732 81.0025 46.2325 82.4848C47.3919 83.9671 48.8721 85.1799 50.5615 86.0316C51.2065 86.3824 51.8875 86.6624 52.5918 86.8667L46.7575 98.0345C46.5119 98.5047 46.4689 99.0562 46.6381 99.5677C46.8072 100.079 47.1746 100.509 47.6595 100.762C48.1443 101.016 48.7068 101.072 49.2233 100.918C49.7398 100.765 50.168 100.415 50.4136 99.9446L56.248 88.7768C56.8305 89.2444 57.4614 89.6497 58.1297 89.9855C59.5924 90.7654 61.1903 91.2575 62.8315 91.4334C64.4728 91.6093 66.1251 91.4655 67.6934 91.0104C69.6847 90.4005 71.4799 89.3138 72.9202 87.8465C74.3605 86.3792 75.4015 84.5765 75.9511 82.5979C76.1608 81.818 76.1427 80.9906 75.8987 80.2091C75.6547 79.4276 75.1947 78.7234 74.5706 78.176ZM54.122 83.1983C52.7414 82.807 51.4715 82.0897 50.4248 81.11C49.3782 80.1303 48.5869 78.9182 48.1209 77.581C47.6836 76.2062 47.6165 74.752 47.9262 73.3624C48.2359 71.9727 48.9116 70.6959 49.8866 69.658C50.5048 69.8567 51.1047 70.1097 51.6791 70.4139C52.6729 70.9089 53.5587 71.5953 54.2823 72.4311C55.0059 73.2669 55.5521 74.2347 55.8877 75.2753C56.3376 76.649 56.4112 78.1064 56.101 79.4984C55.7908 80.8904 55.1079 82.1672 54.122 83.1983ZM60.7899 70.435C59.4076 70.047 58.1361 69.3309 57.0889 68.3506C56.0417 67.3704 55.2515 66.1567 54.7888 64.8178C54.3476 63.4504 54.2767 62.0021 54.5833 60.6179C54.8899 59.2337 55.5633 57.9621 56.5359 56.9303C57.1646 57.0999 57.7725 57.3418 58.3469 57.6507C59.3407 58.1457 60.2265 58.832 60.9501 59.6679C61.6737 60.5037 62.22 61.4715 62.5555 62.512C63.0054 63.8858 63.079 65.3431 62.7688 66.7351C62.4586 68.1271 61.7757 69.4039 60.7899 70.435ZM67.4577 57.6718C66.0754 57.2837 64.8039 56.5676 63.7568 55.5874C62.7096 54.6072 61.9193 53.3935 61.4566 52.0546C61.0154 50.6871 60.9446 49.2389 61.2512 47.8547C61.5578 46.4705 62.2311 45.1989 63.2037 44.167C63.827 44.3532 64.4332 44.5943 65.0147 44.8875C66.0085 45.3824 66.8943 46.0688 67.6179 46.9046C68.3416 47.7405 68.8878 48.7082 69.2233 49.7488C69.6733 51.1226 69.7469 52.5799 69.4367 53.9719C69.1265 55.3639 68.4435 56.6407 67.4577 57.6718ZM76.0803 46.1555C75.3455 44.9269 74.9304 43.5451 74.8726 42.1356C74.8148 40.7262 75.1163 39.3337 75.7496 38.085C76.4192 36.8265 77.4235 35.7751 78.6586 35.0398C79.8938 34.3045 81.3148 33.9118 82.7748 33.9026C83.491 35.1262 83.892 36.4974 83.9421 37.8938C83.9922 39.2902 83.6898 40.6683 83.0619 41.9051C82.3883 43.1569 81.3906 44.2069 80.1667 44.952C78.9427 45.6972 77.5346 46.1119 76.0803 46.1555ZM66.4382 87.1504C65.0482 87.5335 63.5724 87.5567 62.1522 87.2177C60.732 86.8788 59.415 86.1891 58.3275 85.2148C58.4892 84.6309 58.707 84.0648 58.9782 83.5239L59.0153 83.453C60.0132 81.513 61.7601 80.0578 63.8766 79.4037C65.922 78.8214 68.1386 79.0559 70.0509 80.057C70.7546 80.422 71.4111 80.8712 72.0052 81.3939C71.6352 82.7378 70.9348 83.9645 69.9647 84.9676C68.9946 85.9707 67.7841 86.72 66.4382 87.1504ZM73.106 74.3872C71.7169 74.7782 70.2392 74.8054 68.8174 74.4661C67.3957 74.1268 66.0787 73.4327 64.9954 72.4516C65.157 71.8677 65.3749 71.3016 65.6461 70.7607L65.6831 70.6898C66.1697 69.7309 66.8486 68.882 67.6802 68.1928C68.5118 67.5036 69.4792 66.9879 70.5259 66.676C71.5378 66.3708 72.6066 66.2683 73.6698 66.3744C74.733 66.4804 75.7695 66.793 76.7187 67.2937C77.4106 67.678 78.0651 68.1257 78.6731 68.6307C78.303 69.9746 77.6026 71.2013 76.6325 72.2044C75.6625 73.2075 74.452 73.9568 73.106 74.3872ZM79.7738 61.6239C78.3862 62.0273 76.9054 62.0607 75.4813 61.7208C74.0571 61.381 72.7401 60.6799 71.6632 59.6884C71.8249 59.1045 72.0427 58.5383 72.3139 57.9975L72.3509 57.9266C72.8375 56.9677 73.5165 56.1188 74.348 55.4296C75.1796 54.7404 76.1471 54.2247 77.1937 53.9127C78.2119 53.6136 79.2858 53.5189 80.3524 53.6344C81.419 53.7498 82.4567 54.0731 83.4046 54.5851C84.0945 54.9467 84.7386 55.3893 85.3224 55.9029C84.9554 57.2414 84.2577 58.4628 83.2904 59.4601C82.3231 60.4575 81.1157 61.2005 79.7738 61.6239Z" fill="#F09F6B"/>
</svg>
