<svg width="20" height="20" viewBox="0 0 20 20" fill="none" xmlns="http://www.w3.org/2000/svg">
<g clip-path="url(#clip0_224_263)">
<path d="M12.8795 3.86914L15.5436 8.53128M4.88726 8.53128L7.55134 3.86914M17.2486 8.53128H3.18225C2.98247 8.52723 2.78434 8.56819 2.60253 8.6511C2.42072 8.73402 2.2599 8.85678 2.13198 9.01029C2.00406 9.1638 1.91231 9.34412 1.86353 9.5379C1.81476 9.73168 1.81021 9.93395 1.85021 10.1297L3.31545 17.4559C3.37773 17.7613 3.54513 18.0352 3.78852 18.2299C4.03191 18.4247 4.33587 18.5279 4.64749 18.5216H15.7833C16.095 18.5279 16.3989 18.4247 16.6423 18.2299C16.8857 18.0352 17.0531 17.7613 17.1154 17.4559L18.5806 10.1297C18.6206 9.93395 18.6161 9.73168 18.5673 9.5379C18.5185 9.34412 18.4268 9.1638 18.2989 9.01029C18.1709 8.85678 18.0101 8.73402 17.8283 8.6511C17.6465 8.56819 17.4484 8.52723 17.2486 8.53128Z" stroke="#584144" stroke-width="2" stroke-linecap="round" stroke-linejoin="round"/>
</g>
<defs>
<clipPath id="clip0_224_263">
<rect width="18.6485" height="18.6485" fill="white" transform="translate(0.891113 0.539062)"/>
</clipPath>
</defs>
</svg>
