<svg width="97" height="67" viewBox="0 0 97 67" fill="none" xmlns="http://www.w3.org/2000/svg">
<path d="M48.5002 0.271484C46.9328 0.271484 45.0979 1.55548 43.1686 4.4495C42.6448 5.23528 42.1272 6.12514 41.6175 7.099C42.6198 7.46389 43.5245 7.95103 44.3548 8.38468C45.989 9.23859 47.3528 9.88477 48.5002 9.88477C49.6517 9.88477 51.0142 9.24214 52.6473 8.39157C53.479 7.95856 54.3839 7.47204 55.3864 7.1059C54.8759 6.12932 54.357 5.23695 53.832 4.44971C51.9024 1.55507 50.0675 0.271484 48.5002 0.271484ZM39.9955 10.5468C39.6183 11.4343 39.2595 12.3295 38.9193 13.2319C41.0766 13.3075 42.8386 14.2801 44.355 15.0722C45.989 15.9261 47.3524 16.5723 48.5002 16.5723C49.6517 16.5723 51.0142 15.9296 52.6473 15.0791C54.1645 14.2891 55.9254 13.3178 58.0817 13.2337C57.7422 12.3329 57.3841 11.4392 57.0075 10.5533C56.2223 10.8041 55.3551 11.2221 54.3852 11.7274C52.7645 12.5717 50.8734 13.6463 48.5002 13.6463C46.1232 13.6463 44.2327 12.5646 42.6131 11.7184C41.6434 11.212 40.7782 10.7953 39.9955 10.5468ZM38.5289 16.9894C38.2886 16.9971 37.945 17.0632 37.5419 17.1706C34.4635 26.6006 32.0853 38.2772 30.459 47.8742C36.2997 48.7341 42.3991 49.1738 48.5002 49.1738C54.6013 49.1738 60.7011 48.7339 66.5414 47.8739C64.9142 38.2711 62.5337 26.5858 59.4526 17.1526C59.0608 17.055 58.7253 16.9959 58.4829 16.9896C57.3454 16.9603 56.0058 17.571 54.3852 18.4149C52.7645 19.2592 50.8734 20.334 48.5002 20.334C46.1232 20.334 44.2327 19.2523 42.6131 18.4061C40.9934 17.5599 39.6593 16.9537 38.5289 16.9892V16.9894ZM30.5051 28.4971C24.1447 29.5792 18.453 31.2083 13.7822 33.2327C9.45248 35.1086 6.00925 37.3246 3.71022 39.651C5.0657 40.393 6.4521 41.077 7.86566 41.7012C15.4756 38.3323 22.4992 35.8158 29.2333 34.1472C29.6328 32.2668 30.0579 30.3769 30.5051 28.4971ZM66.4952 28.4971C66.9424 30.3771 67.3675 32.2668 67.7671 34.1472C74.5012 35.8158 81.5245 38.3323 89.1347 41.7012C90.5482 41.077 91.9346 40.393 93.2901 39.651C90.9913 37.3244 87.5479 35.1086 83.2181 33.2325C78.5473 31.2081 72.8556 29.579 66.4952 28.4969V28.4971ZM28.4074 38.1762C23.4716 39.5259 18.3285 41.3528 12.8324 43.6573C17.1249 45.1636 21.8193 46.369 26.7474 47.265C27.2352 44.3837 27.7865 41.3221 28.4074 38.1762ZM68.593 38.1762C69.2136 41.3221 69.7654 44.3837 70.2529 47.265C75.1808 46.369 79.8752 45.1636 84.1679 43.6573C78.6717 41.353 73.5285 39.5261 68.593 38.1762ZM1.38108 42.6723C0.859459 43.6086 0.515889 44.5484 0.347656 45.4942L1.99863 43.0174C1.79195 42.9039 1.5861 42.7888 1.38108 42.6723ZM95.6192 42.6723C95.4143 42.7888 95.2084 42.9037 95.0017 43.0172L96.6527 45.4942C96.4846 44.5484 96.1407 43.6082 95.6192 42.6723ZM6.91227 45.4171V49.0225L8.7923 46.2025C8.16164 45.9504 7.53489 45.6887 6.91227 45.4173V45.4171ZM90.0881 45.4171C89.4654 45.6885 88.8387 45.9503 88.208 46.2025L90.0881 49.0225V45.4171ZM3.15055 48.0714L1.27492 50.8844C1.74096 51.7621 2.3654 52.6361 3.15055 53.5071V48.0714ZM93.8498 48.0714V53.5071C94.6349 52.6361 95.2592 51.7621 95.7254 50.8844L93.8498 48.0714ZM14.2225 48.1306L16.0825 57.4279L21.5771 50.1015C19.0497 49.5324 16.5924 48.8752 14.2225 48.1304V48.1306ZM82.7778 48.1306C80.4079 48.8754 77.9507 49.5329 75.4232 50.1013L80.918 57.4279L82.778 48.1306H82.7778ZM10.7651 50.0248L6.59629 56.2776L6.00486 56.0985C7.85855 57.5102 10.1365 58.8515 12.7732 60.0655L10.7651 50.0248ZM86.2352 50.0248L84.2269 60.0655C86.8636 58.8513 89.1416 57.5102 90.9955 56.0985L90.404 56.2776L86.2352 50.0248ZM28.645 51.4428L35.493 65.1388L45.2874 52.896C39.6476 52.7644 34.042 52.2848 28.645 51.443V51.4428ZM68.3553 51.4428C62.9585 52.2846 57.3527 52.764 51.7129 52.896L61.5073 65.139L68.3553 51.443V51.4428ZM24.7721 52.1101L17.4033 61.9348C21.5353 63.3969 26.2669 64.5814 31.4209 65.4073L24.7721 52.1101ZM72.2282 52.1101L65.5794 65.4073C70.7334 64.5814 75.465 63.3969 79.5968 61.9348L72.228 52.1105L72.2282 52.1101ZM48.5002 54.9015L39.3358 66.3569C42.3843 66.6052 45.4416 66.7291 48.5002 66.7285C51.6333 66.7285 54.6965 66.5994 57.6645 66.3565L48.5002 54.9015Z" fill="#E09077"/>
</svg>
