<svg width="71" height="71" viewBox="0 0 71 71" fill="none" xmlns="http://www.w3.org/2000/svg">
<path d="M14.6925 0.552643L14.9514 3.8844L12.4073 6.0553L15.6675 6.84292L16.9471 9.92788L18.6991 7.0821L22.0202 6.81549L19.8569 4.26983L20.6339 1.02186L17.5413 2.29393L14.6925 0.552643ZM66.6874 1.87499C66.0409 1.87499 65.4209 2.13179 64.9638 2.58891C64.5067 3.04603 64.2499 3.66602 64.2499 4.31249C64.2499 4.95895 64.5067 5.57894 64.9638 6.03606C65.4209 6.49318 66.0409 6.74999 66.6874 6.74999C67.3338 6.74999 67.9538 6.49318 68.411 6.03606C68.8681 5.57894 69.1249 4.95895 69.1249 4.31249C69.1249 3.66602 68.8681 3.04603 68.411 2.58891C67.9538 2.13179 67.3338 1.87499 66.6874 1.87499ZM32.5319 3.4746C31.8854 3.4746 31.2655 3.7314 30.8083 4.18852C30.3512 4.64564 30.0944 5.26563 30.0944 5.9121C30.0944 6.55856 30.3512 7.17855 30.8083 7.63567C31.2655 8.09279 31.8854 8.3496 32.5319 8.3496C33.1784 8.3496 33.7984 8.09279 34.2555 7.63567C34.7126 7.17855 34.9694 6.55856 34.9694 5.9121C34.9694 5.26563 34.7126 4.64564 34.2555 4.18852C33.7984 3.7314 33.1784 3.4746 32.5319 3.4746ZM60.5479 4.51663C59.1464 4.7817 57.8514 5.61045 56.6022 6.6921C55.4444 7.6869 54.3628 8.92545 53.4487 10.2646C50.5847 10.7231 47.7206 11.8901 45.8011 13.4836C43.3483 15.4945 41.1698 18.9375 39.9815 22.4871C38.8542 22.9594 37.7878 23.523 36.9194 24.1324C34.5581 25.793 33.3393 28.9769 32.4405 31.7496C31.5417 34.5375 31.0999 36.975 31.0999 36.975L33.8116 37.4625C33.8116 37.4625 34.2229 35.1773 35.0456 32.6027C35.8835 30.0281 37.3003 27.225 38.5038 26.3871C38.7018 26.25 38.9608 26.0976 39.1893 25.9605C39.0979 26.8289 39.0979 27.6972 39.235 28.5199C39.5093 30.2566 40.4538 31.9172 42.1296 32.816C43.3179 33.4558 44.6585 33.3035 45.7858 32.8465C46.9132 32.3742 47.9186 31.5972 48.787 30.6832C49.6554 29.7691 50.3714 28.6875 50.7979 27.5449C51.2245 26.4023 51.3768 25.1074 50.8284 23.9039H50.8132C50.219 22.6242 49.0764 21.8015 47.8577 21.4512C46.6389 21.1008 45.3288 21.116 44.0186 21.314C43.7901 21.3445 43.5768 21.4207 43.3483 21.4664C44.4757 19.0594 46.0905 16.7894 47.5378 15.5859C48.4823 14.809 50.0667 14.0625 51.7577 13.514C51.5444 14.093 51.3768 14.6719 51.3007 15.266C51.0569 16.8656 51.4073 18.6023 52.687 19.7906C53.6163 20.6437 54.8655 20.7808 55.9624 20.598C57.044 20.4152 58.0952 19.9277 59.0397 19.3031C59.9843 18.6633 60.8221 17.8711 61.4163 16.9418C62.0104 16.0125 62.4065 14.8242 62.0257 13.6359V13.6207C61.5229 12.0866 60.2737 11.0324 58.8874 10.5327C58.2932 10.3194 57.6686 10.199 57.0288 10.1274C57.4706 9.63081 57.9276 9.16616 58.3847 8.76854C59.4206 7.87885 60.4718 7.32127 61.0659 7.21006L60.5479 4.51663ZM22.6296 9.85627L20.3139 11.3127L25.5698 19.7297L16.9776 20.1715L21.0147 28.9769L23.5132 27.8191L21.1518 22.7004L30.3839 22.2281L22.6296 9.85627ZM55.5968 12.798C56.5261 12.7828 57.3487 12.8894 57.9581 13.118C58.7807 13.4074 59.1921 13.773 59.4054 14.4586C59.4663 14.6262 59.4358 14.9613 59.1159 15.464C58.7807 15.982 58.1866 16.5609 57.5163 17.018C56.8307 17.475 56.069 17.7949 55.5054 17.8863C54.9264 17.993 54.6675 17.8863 54.5456 17.7797C54.0124 17.2922 53.86 16.6828 54.0124 15.6621C54.1343 14.8394 54.5151 13.8492 55.0788 12.8285C55.2616 12.8285 55.4292 12.798 55.5968 12.798ZM10.471 15.7383C9.82455 15.7383 9.20456 15.9951 8.74744 16.4522C8.29032 16.9093 8.03352 17.5293 8.03352 18.1758C8.03352 18.8222 8.29032 19.4422 8.74744 19.8993C9.20456 20.3565 9.82455 20.6133 10.471 20.6133C10.7912 20.6135 11.1084 20.5506 11.4043 20.4282C11.7002 20.3058 11.9691 20.1262 12.1956 19.8999C12.4221 19.6735 12.6018 19.4047 12.7244 19.1089C12.8469 18.8131 12.91 18.496 12.91 18.1758C12.91 17.8555 12.8469 17.5385 12.7244 17.2426C12.6018 16.9468 12.4221 16.678 12.1956 16.4517C11.9691 16.2253 11.7002 16.0458 11.4043 15.9234C11.1084 15.801 10.7912 15.7381 10.471 15.7383ZM64.7222 21.4055L62.5284 23.9344L59.2073 23.6601L60.944 26.5242L59.6491 29.6015L62.9093 28.8398L65.4382 31.0183L65.7276 27.682L68.5764 25.9453L65.4991 24.6504L64.7222 21.4055ZM45.9077 23.9191C46.3495 23.9344 46.7608 23.9953 47.0807 24.0867C47.7358 24.2695 48.0862 24.5437 48.33 25.0617C48.4671 25.3512 48.4823 25.8844 48.2233 26.5851C47.9643 27.3012 47.4311 28.1238 46.7913 28.8094C46.1514 29.4949 45.3745 30.0433 44.7346 30.3023C44.0948 30.5613 43.6987 30.5461 43.4397 30.409H43.4245C42.5409 29.9215 42.1143 29.2207 41.9468 28.0933C41.7944 27.1336 41.9011 25.9148 42.221 24.6047C42.9675 24.3457 43.7139 24.1324 44.43 24.0258C44.9632 23.9496 45.4507 23.9191 45.9077 23.9191ZM15.0733 31.8258C13.9764 31.7953 13.2909 32.0543 12.8643 32.4808C12.4378 32.9074 12.1788 33.5929 12.2093 34.6898C12.2397 35.8019 12.6054 37.2644 13.3061 38.8945C14.7077 42.1699 17.4651 46.1156 21.1671 49.8328C24.869 53.5347 28.83 56.2769 32.1054 57.6785C33.7202 58.3793 35.1827 58.7449 36.2948 58.7754C37.4069 58.8211 38.0772 58.5469 38.5038 58.1203C38.9304 57.6937 39.2046 57.0234 39.1589 55.9113C39.1284 54.7992 38.7628 53.3367 38.062 51.7066C36.6604 48.4465 33.9182 44.4855 30.2163 40.7836C26.5143 37.0664 22.5534 34.3242 19.278 32.9226C17.6479 32.2219 16.1854 31.8562 15.0733 31.8258ZM50.4171 36.5941L45.3897 44.8207L40.9565 40.5703L39.0675 42.5508L45.9382 49.1472L51.0874 40.7379L56.9831 45.6586L70.5874 39.839L69.521 37.3101L57.4401 42.4898L50.4171 36.5941ZM10.2334 38.5289L7.54602 47.3496C13.8546 54.8297 21.2128 59.0344 29.1956 61.7765L32.4862 60.7711C32.0139 60.6035 31.5112 60.4054 31.0085 60.1922C27.2913 58.6078 23.1323 55.6828 19.2323 51.7676C15.3171 47.8523 12.3921 43.6933 10.8016 39.9762C10.5868 39.4887 10.3979 39.0012 10.2334 38.5289ZM6.60453 50.4422L4.4702 57.45C8.87141 61.5633 13.4585 63.4219 18.2725 65.0976L24.8843 63.0867C18.303 60.4054 12.0874 56.4902 6.60453 50.4422ZM52.0624 50.625C51.4159 50.625 50.7959 50.8818 50.3388 51.3389C49.8817 51.796 49.6249 52.416 49.6249 53.0625C49.6249 53.7089 49.8817 54.3289 50.3388 54.7861C50.7959 55.2432 51.4159 55.5 52.0624 55.5C52.7089 55.5 53.3288 55.2432 53.786 54.7861C54.2431 54.3289 54.4999 53.7089 54.4999 53.0625C54.4999 52.416 54.2431 51.796 53.786 51.3389C53.3288 50.8818 52.7089 50.625 52.0624 50.625ZM3.58813 60.3597L0.49707 70.5058L13.946 66.4078C10.4771 65.0215 6.97168 63.2543 3.58813 60.3597Z" fill="#E09077"/>
</svg>
