<svg width="97" height="70" viewBox="0 0 97 70" fill="none" xmlns="http://www.w3.org/2000/svg">
<path d="M48.4998 0.469528C37.3818 0.469528 27.0162 3.5914 18.7822 8.35859L21.7498 13.0836L18.5732 15.1086L15.5994 10.3625C15.1459 10.6578 14.7007 10.9742 14.264 11.2906C6.16582 17.1758 1.07287 24.7273 0.324707 31.7937C0.94748 33.207 2.02166 35.4852 3.40514 37.8687C5.64754 41.7289 8.88471 45.5891 11.1773 46.2641C14.9223 45.7367 18.2806 41.6023 21.6871 42.193C26.9326 43.2687 29.6494 48.1836 32.199 52.318C34.1426 55.3766 36.6086 59.6375 40.1613 60.0172C41.457 60.1648 42.5855 59.7641 43.8603 58.9203C45.1351 58.0555 46.4726 56.7266 47.8728 55.2711C50.6314 52.3812 53.6617 48.7531 58.2176 48.1836C61.415 47.7617 63.9855 49.4914 66.1799 50.7992C68.3533 52.0859 70.0879 52.9508 71.509 52.6133H71.5299C73.8496 51.4742 75.0408 49.4914 76.1484 47.7195L68.7086 42.3617L70.882 39.282L78.3845 44.682C79.4504 43.5219 80.767 42.5727 82.5015 42.193C84.9049 41.6656 86.7648 42.9945 88.165 43.8805C89.5443 44.7664 90.5056 45.2094 91.049 45.1039C91.6968 44.9773 93.515 43.6273 94.8316 42.193C95.2496 41.7289 95.6467 41.2648 95.9601 40.8641C96.5035 38.5648 96.7752 36.1391 96.7752 33.5867C96.7752 33.2703 96.7543 32.9539 96.7543 32.6586L88.8965 36.6031L87.2246 33.1859L96.0855 28.7141C94.4136 22.5969 89.6697 16.332 82.7314 11.2906C73.9541 4.89922 61.7703 0.469528 48.4998 0.469528ZM62.9406 3.46484L64.1945 7.05078L53.6826 10.8687L52.4287 7.28281L62.9406 3.46484ZM33.641 5.78515L40.6211 7.81015L39.5762 11.4383L32.5961 9.43437L33.641 5.78515ZM72.1777 10.6367L80.4744 16.4586L78.3427 19.5805L70.0461 13.7586L72.1777 10.6367ZM62.2301 13.3367L64.4871 16.3742L57.5906 21.5422L55.3336 18.5047L62.2301 13.3367ZM29.4195 20.5086L29.9629 24.2633L20.4332 25.7187L19.8898 21.9641L29.4195 20.5086ZM48.4998 21.268C52.2197 21.268 55.6052 21.943 58.2176 23.1875C60.8299 24.4109 63.0033 26.3516 63.0033 29.0937C63.0033 31.8359 60.8299 33.7766 58.2176 35C55.6052 36.2445 52.2197 36.9195 48.4998 36.9195C44.7799 36.9195 41.3943 36.2445 38.782 35C36.1697 33.7766 33.9963 31.8359 33.9963 29.0937C33.9963 26.3516 36.1697 24.4109 38.782 23.1875C41.3943 21.943 44.7799 21.268 48.4998 21.268ZM79.0533 22.4492L80.0146 26.1195L70.1506 28.693L69.1892 25.0227L79.0533 22.4492ZM48.4998 25.0648C45.2396 25.0648 42.3138 25.6977 40.3703 26.6258C38.4058 27.5328 37.758 28.5664 37.758 29.0937C37.758 29.6211 38.4058 30.6547 40.3703 31.5617C42.3138 32.4898 45.2396 33.1227 48.4998 33.1227C51.7599 33.1227 54.6857 32.4898 56.6293 31.5617C58.5937 30.6547 59.2416 29.6211 59.2416 29.0937C59.2416 28.5664 58.5937 27.5328 56.6293 26.6258C54.6857 25.6977 51.7599 25.0648 48.4998 25.0648ZM7.86486 28.8617L16.1699 32.1102L14.8115 35.6539L6.50646 32.4055L7.86486 28.8617ZM1.17736 41.4969C3.07076 49.0062 7.69559 55.1445 14.2493 59.8273C22.9619 66.0289 35.1457 69.5305 48.4998 69.5305C61.8539 69.5305 74.0377 66.0289 82.7523 59.8273C87.1619 56.6844 90.7146 52.8664 93.1179 48.3945C92.7 48.5844 92.2611 48.732 91.8013 48.8164C89.398 49.3227 87.5381 47.9726 86.1588 47.0867C84.7586 46.2219 83.8181 45.7789 83.2957 45.9055C81.791 46.243 80.4953 47.9516 78.9906 50.293C77.465 52.6133 75.7304 55.5664 72.3449 56.3258C69.1683 57.043 66.4933 55.3977 64.2572 54.0687C62.042 52.7398 60.182 51.7484 58.6982 51.9383C55.1873 52.993 52.5959 55.7984 50.5687 57.9078C49.1476 59.4055 47.6847 60.9242 45.9502 62.0844C44.2156 63.2445 42.1258 64.025 39.7851 63.8141C34.1844 62.7805 31.5929 58.5617 29.0015 54.3219C26.431 50.1664 24.0904 46.5594 20.9347 45.9055C17.0267 46.5383 14.3267 51.0523 10.1219 49.8922C6.27031 48.7531 3.4323 45.1461 1.17736 41.4969ZM47.9146 42.0875L48.458 45.8422L37.9252 47.4031L37.3818 43.6484L47.9146 42.0875Z" fill="#E09077"/>
</svg>
