<svg width="57" height="57" viewBox="0 0 57 57" fill="none" xmlns="http://www.w3.org/2000/svg">
<path d="M13.729 8.99976C15.2876 8.99976 16.8195 9.2714 18.2934 9.81468C18.755 9.98353 19.1494 10.2974 19.4175 10.7092C19.6856 11.1211 19.8131 11.6087 19.7808 12.0991C19.763 12.3441 19.3533 18.1198 17.1757 23.94C14.9981 29.7691 11.8765 33.8526 11.7429 34.0263C11.4489 34.4094 11.0402 34.6886 10.5764 34.8232C10.1126 34.9578 9.61794 34.9407 9.16453 34.7744C2.28446 32.254 -1.26469 24.608 1.25133 17.7279C3.16172 12.5088 8.17594 8.99976 13.729 8.99976Z" fill="#FCC21B"/>
<path d="M30.6954 1.45618C32.49 1.45618 34.2445 1.81689 35.9055 2.52493C39.1697 3.91431 41.6946 6.49712 43.0216 9.79243C44.3442 13.0877 44.3041 16.6948 42.9103 19.9589C42.5541 20.805 41.7213 21.3394 40.8218 21.3394C40.7461 21.3394 40.6748 21.3349 40.6036 21.3305C40.3854 21.3082 35.2732 20.7917 29.5287 18.387C23.7975 15.9912 19.3043 12.3352 19.1173 12.1793C18.7367 11.8676 18.4678 11.4405 18.3513 10.9625C18.2349 10.4845 18.2771 9.98159 18.4716 9.5297C19.4917 7.13274 21.1948 5.08905 23.3685 3.65337C25.5422 2.2177 28.0904 1.45355 30.6954 1.45618Z" fill="#FCC21B"/>
<path d="M22.4749 22.2611C22.5195 22.0429 22.6709 21.8648 22.8668 21.7802L24.5367 21.0543C24.7727 20.9519 25.0444 20.992 25.2403 21.1478C25.4407 21.3126 25.5298 21.5709 25.4763 21.8203C25.4763 21.8292 25.267 22.9202 25.8771 23.8331C26.318 24.4877 27.0928 24.9152 28.1838 25.1067C31.0873 25.6188 31.4124 27.5024 31.6439 28.874C31.8666 30.1743 32.0224 30.7577 33.3406 30.8824C34.8056 31.0204 35.8833 31.5682 36.5468 32.5122C37.6111 34.0174 37.1435 35.9456 37.1257 36.0257C37.0767 36.2306 36.9298 36.3998 36.7338 36.4844L35.0639 37.2103C34.9749 37.2503 34.8813 37.2682 34.7923 37.2682C34.6891 37.2684 34.5871 37.2451 34.4942 37.2001C34.4013 37.1552 34.3198 37.0897 34.2559 37.0086C34.192 36.9276 34.1474 36.8331 34.1253 36.7322C34.1033 36.6314 34.1045 36.5268 34.1288 36.4265C34.1288 36.4132 34.4583 35.0104 33.7547 34.0218C33.3272 33.4251 32.5835 33.0689 31.537 32.9709C29.119 32.7393 28.834 31.0605 28.6247 29.8359C28.402 28.5445 28.2328 27.5247 26.2735 27.1818C24.8039 26.9235 23.7263 26.3001 23.0717 25.3249C22.1365 23.9177 22.4571 22.3279 22.4749 22.2611Z" fill="#ED6C30"/>
<path d="M17.1757 41.6545C18.1999 40.8128 18.004 40.2473 17.4652 39.0405C16.8907 37.7714 16.107 36.0257 18.2355 33.9818C19.0282 33.2203 19.4334 32.4321 19.4379 31.6483C19.4468 30.5395 18.6541 29.7468 18.6497 29.7379C18.4671 29.5598 18.4003 29.2971 18.4716 29.0521C18.5473 28.8072 18.7477 28.6246 19.0015 28.5801L20.7916 28.2506C21.0054 28.2105 21.2281 28.2773 21.3884 28.4287C21.4329 28.4777 22.5952 29.6177 22.5907 31.3054C22.5907 32.4766 22.0385 33.5943 20.9698 34.6319C19.5359 36.0079 19.9589 36.952 20.4977 38.1499C21.0054 39.2854 21.7045 40.8351 19.8298 42.3759C19.0148 43.0439 18.5918 43.7519 18.574 44.4867C18.5384 45.7024 19.5938 46.6821 19.6027 46.6865C19.7986 46.8602 19.8699 47.1318 19.8031 47.3768C19.7318 47.6306 19.527 47.8176 19.2687 47.8621L17.4785 48.1917C17.4384 48.2006 17.3984 48.205 17.3583 48.205C17.1935 48.205 17.0288 48.1427 16.8996 48.0314C16.8373 47.9735 15.3722 46.6375 15.4167 44.7939C15.4524 43.645 16.0402 42.5896 17.1757 41.6545ZM26.9102 41.3873C25.9216 39.6728 26.4649 38.1499 26.4872 38.0831C26.554 37.905 26.692 37.758 26.8746 37.6912L28.4688 37.05C28.7138 36.952 28.9988 37.0054 29.1902 37.1925C29.3817 37.375 29.453 37.66 29.3639 37.9139C29.3506 37.9539 29.0255 38.9292 29.6845 40.0647C29.9873 40.5813 30.3703 40.7728 30.8602 41.0132C31.4168 41.2849 32.1115 41.6233 32.5301 42.5228C32.922 43.36 32.8195 44.1705 32.7349 44.8875C32.6548 45.5421 32.588 46.1032 32.8552 46.6598C33.1357 47.2565 33.6166 47.5549 34.1733 47.9022C34.7255 48.2451 35.3489 48.6325 35.7987 49.3495C36.1816 49.9596 36.2262 50.6543 36.2707 51.3311C36.3464 52.4311 36.4355 53.1302 37.3929 53.62C37.6289 53.7403 37.7759 53.9896 37.767 54.2568C37.7536 54.524 37.5888 54.76 37.3395 54.858L35.7452 55.4993C35.6651 55.5349 35.576 55.5482 35.4914 55.5482C35.3845 55.5482 35.2821 55.5215 35.1841 55.4725C33.492 54.6131 33.3895 53.1391 33.3227 52.0614C33.2871 51.5315 33.2559 51.0328 33.0511 50.7166C32.7706 50.2624 32.3431 50.0041 31.8577 49.6968C31.212 49.2916 30.4861 48.8418 30.0319 47.8844C29.5955 46.9671 29.6979 46.1121 29.7959 45.3595C29.8716 44.7494 29.9339 44.2195 29.7068 43.7386C29.502 43.2932 29.2125 43.1374 28.6737 42.8746C28.1081 42.5986 27.4134 42.2646 26.9102 41.3873ZM46.3793 33.7502C45.6223 33.7235 44.7628 33.6878 43.8945 33.0822C43.0617 32.4989 42.7322 31.7107 42.4338 31.0071C42.1934 30.4371 41.9885 29.9472 41.5521 29.64C41.1068 29.3282 40.6927 29.3728 40.2295 29.4039C40.047 29.4173 39.8599 29.4262 39.6773 29.4262C39.2721 29.4262 38.6576 29.3817 37.9673 28.9809C36.2573 27.9878 35.9768 26.3892 35.9634 26.3224C35.9323 26.1353 35.9857 25.9394 36.1015 25.788L37.1702 24.4387C37.335 24.2294 37.6156 24.1359 37.8738 24.2027C38.1321 24.2695 38.3281 24.4832 38.3726 24.7504C38.377 24.7593 38.573 25.788 39.7174 26.4515C40.0336 26.6386 40.332 26.7143 40.7416 26.7143C40.8975 26.7143 41.0534 26.7053 41.2092 26.6964C41.3874 26.6831 41.561 26.6742 41.7391 26.6742C42.1845 26.6742 42.7723 26.7321 43.4046 27.1818C44.1616 27.7162 44.4734 28.4688 44.7539 29.1368C45.0077 29.7424 45.2304 30.2634 45.7381 30.6196C46.2769 30.9937 46.8424 31.016 47.497 31.0427C48.1427 31.0694 48.8775 31.0961 49.6256 31.4969C50.258 31.8398 50.6454 32.4187 51.015 32.9798C51.6028 33.8704 52.0125 34.4137 52.9922 34.4137L53.1258 34.4093C53.3841 34.3959 53.6423 34.5384 53.767 34.7789C53.8873 35.0149 53.8606 35.3043 53.6913 35.5136L52.6226 36.8629C52.4979 37.0143 52.3153 37.1078 52.1238 37.1168C52.057 37.1212 51.9902 37.1257 51.9234 37.1257C50.1645 37.1257 49.3807 35.9456 48.8107 35.0817C48.5213 34.6408 48.2407 34.2222 47.9112 34.0441C47.4525 33.7903 46.9538 33.7725 46.3793 33.7502Z" fill="#D7598B"/>
<path d="M39.9802 39.2766V37.1791C39.9802 36.8006 40.2874 36.4978 40.6615 36.4978H42.7634C43.1374 36.4978 43.4447 36.8006 43.4447 37.1791V39.2766C43.4447 39.6551 43.1419 39.9579 42.7634 39.9579H40.6615C40.283 39.9579 39.9802 39.6506 39.9802 39.2766Z" fill="#ED6C30"/>
<path d="M48.3209 22.898L49.8038 24.3809C50.0709 24.6481 50.0709 25.0801 49.8038 25.3428L48.3209 26.8301C48.1873 26.9593 48.0136 27.0305 47.8399 27.0305C47.6618 27.0305 47.4881 26.9637 47.359 26.8301L45.8717 25.3428C45.6045 25.0756 45.6045 24.6481 45.8717 24.3809L47.359 22.898C47.6262 22.6308 48.0581 22.6308 48.3209 22.898Z" fill="#40C0E7"/>
<path d="M52.4623 27.1329C52.3331 27.0037 52.2619 26.8345 52.2619 26.6519C52.2619 26.4738 52.3331 26.3001 52.4623 26.171L53.9496 24.6837C54.2034 24.4298 54.6577 24.4298 54.9115 24.6837L56.3944 26.171C56.5235 26.3001 56.5992 26.4738 56.5992 26.6519C56.5992 26.8345 56.5235 27.0037 56.3944 27.1329L54.9115 28.6158C54.8485 28.6792 54.7735 28.7295 54.691 28.7638C54.6084 28.7981 54.5199 28.8158 54.4305 28.8158C54.3412 28.8158 54.2526 28.7981 54.1701 28.7638C54.0876 28.7295 54.0126 28.6792 53.9496 28.6158L52.4623 27.1329Z" fill="#ED6C30"/>
<path d="M44.8296 41.4141C45.0834 41.1558 45.5377 41.1558 45.7959 41.4141L47.2788 42.897C47.546 43.1642 47.546 43.5961 47.2788 43.8633L45.7959 45.3462C45.7329 45.4096 45.658 45.4599 45.5754 45.4942C45.4929 45.5285 45.4044 45.5462 45.315 45.5462C45.2256 45.5462 45.1371 45.5285 45.0546 45.4942C44.972 45.4599 44.8971 45.4096 44.8341 45.3462L43.3512 43.8633C43.084 43.5961 43.084 43.1642 43.3512 42.897L44.8296 41.4141ZM26.4649 49.8349C26.7321 49.5677 27.1641 49.5677 27.4312 49.8349L28.8251 51.2288C29.0923 51.4959 29.0923 51.9279 28.8251 52.1951L27.4312 53.5889C27.3682 53.6523 27.2933 53.7026 27.2107 53.7369C27.1282 53.7713 27.0397 53.7889 26.9503 53.7889C26.8609 53.7889 26.7724 53.7713 26.6899 53.7369C26.6073 53.7026 26.5324 53.6523 26.4694 53.5889L25.0755 52.1951C24.8084 51.9279 24.8084 51.4959 25.0755 51.2288L26.4649 49.8349ZM7.58813 40.4834C7.5251 40.5468 7.45016 40.5971 7.36762 40.6314C7.28509 40.6657 7.19658 40.6834 7.10719 40.6834C7.0178 40.6834 6.92929 40.6657 6.84675 40.6314C6.76421 40.5971 6.68928 40.5468 6.62625 40.4834L5.22797 39.0895C4.96523 38.8224 4.96523 38.3949 5.22797 38.1277L6.62625 36.7338C6.89344 36.4667 7.32539 36.4667 7.58813 36.7338L8.98195 38.1277C9.24914 38.3949 9.24914 38.8224 8.98195 39.0895L7.58813 40.4834ZM11.9255 50.1288C12.1882 49.8617 12.6246 49.8617 12.8918 50.1288L14.2856 51.5227C14.5484 51.7899 14.5484 52.2218 14.2856 52.489L12.8918 53.8828C12.7582 54.012 12.5801 54.0832 12.4064 54.0832C12.2327 54.0832 12.0591 54.0164 11.9255 53.8828L10.5316 52.489C10.2645 52.2218 10.2645 51.7899 10.5316 51.5227L11.9255 50.1288ZM37.2148 46.6064V44.509C37.2148 44.1349 37.522 43.8277 37.8961 43.8277H39.998C40.3765 43.8277 40.6793 44.1349 40.6793 44.509V46.6064C40.6793 46.9849 40.3765 47.2877 39.998 47.2877H37.8961C37.522 47.2877 37.2148 46.9805 37.2148 46.6064Z" fill="#40C0E7"/>
<path d="M24.5367 43.89H26.5095C26.8835 43.89 27.1908 44.1928 27.1908 44.5713V46.5441C27.1908 46.9181 26.8835 47.2254 26.5095 47.2254H24.5367C24.1627 47.2254 23.8554 46.9181 23.8554 46.5441V44.5713C23.8554 44.1928 24.1582 43.89 24.5367 43.89ZM45.2482 48.9977H47.3501C47.7241 48.9977 48.0314 49.305 48.0314 49.6791V51.7765C48.0314 52.1506 47.7241 52.4578 47.3501 52.4578H45.2482C44.8697 52.4578 44.5669 52.1506 44.5669 51.7765V49.6791C44.5669 49.3006 44.8697 48.9977 45.2482 48.9977Z" fill="#ED6C30"/>
<path d="M51.3178 42.8969C51.5806 42.6297 52.0125 42.6297 52.2797 42.8969L53.7626 44.3843C53.8962 44.5134 53.963 44.6826 53.963 44.8652C53.963 45.0478 53.8917 45.2215 53.7626 45.3461L52.2797 46.829C52.2167 46.8924 52.1417 46.9427 52.0592 46.9771C51.9767 47.0114 51.8882 47.029 51.7988 47.029C51.7094 47.029 51.6209 47.0114 51.5383 46.9771C51.4558 46.9427 51.3809 46.8924 51.3178 46.829L49.8349 45.3461C49.5677 45.079 49.5677 44.647 49.8349 44.3843L51.3178 42.8969Z" fill="#40C0E7"/>
<path d="M54.5196 18.8679C53.6646 19.1217 52.725 18.9302 51.9858 18.7209C51.398 18.5561 50.8458 18.4225 50.3693 18.565C49.8973 18.6986 49.6969 18.9658 49.3584 19.4557C49.0066 19.9633 48.5702 20.5957 47.6262 20.9653C47.1096 21.1657 46.5752 21.2725 46.0453 21.2725C45.885 21.2725 45.738 21.2636 45.5955 21.2503C45.2616 21.2147 44.9988 20.9341 44.9855 20.6001L44.9231 18.9436C44.9142 18.761 44.9988 18.5784 45.128 18.4448C45.2571 18.3112 45.453 18.2355 45.6356 18.2355C46.0186 18.2355 46.3793 18.1687 46.7355 18.0262C47.2922 17.808 47.5371 17.4562 47.8444 17.0064C48.2006 16.4943 48.6415 15.862 49.59 15.5815C50.3782 15.3499 51.2243 15.528 51.9546 15.7329C52.587 15.911 53.1837 16.049 53.7314 15.8843C54.0743 15.7818 54.3638 15.5993 54.6799 15.2831C54.8313 15.1406 55.0451 15.0649 55.2499 15.0961C55.4592 15.1228 55.6418 15.2475 55.7487 15.43L56.5057 16.7214C56.6527 16.9753 56.6259 17.2915 56.43 17.5141C55.9847 18.0218 55.428 18.5918 54.5196 18.8679ZM0.725861 49.9106C0.863907 49.826 0.979687 49.8171 1.10883 49.7993C2.51156 49.6523 3.72727 49.1803 4.6268 48.4589C2.65852 47.4881 1.88367 45.6089 1.9861 44.4644C1.9861 44.4199 1.99055 44.362 1.99945 44.3041C2.14641 42.652 3.16172 41.5877 4.58672 41.5877C4.93852 41.5877 5.31258 41.65 5.72672 41.7747C6.24773 41.9306 7.75289 42.3893 8.54555 45.453C9.5386 44.7494 10.3402 43.6361 10.8434 42.229C10.8879 42.0998 10.9235 41.9929 11.0393 41.8816C11.2931 41.6278 11.7429 41.6278 12.0012 41.8816L13.4752 43.36C13.729 43.6139 13.7423 44.0147 13.5108 44.2818C13.5776 44.2017 13.6043 44.1438 13.5998 44.1616C12.6291 46.9047 10.7053 48.6815 8.30062 49.0823C7.31649 51.2465 5.17008 52.6448 2.29336 52.9476C2.24883 52.9565 2.20875 52.9565 2.16422 52.9565C1.93711 52.9565 1.71 52.8407 1.58086 52.6315L0.494297 50.8547C0.307266 50.5251 0.409687 50.1065 0.725861 49.9106ZM5.10328 45.5866C5.42836 45.7647 5.75344 45.9117 6.03399 46.0186C6.0518 45.7157 6.0518 45.3506 6.00727 44.9765C5.97164 44.5179 5.40164 44.0102 4.91625 44.0102C4.79602 44.0102 4.68914 44.0414 4.59563 44.1037C4.4086 44.224 4.30172 44.4288 4.31063 44.6425C4.32399 44.9765 4.60453 45.3105 5.10328 45.5866Z" fill="#ED6C30"/>
</svg>
