<svg width="57" height="57" viewBox="0 0 57 57" fill="none" xmlns="http://www.w3.org/2000/svg">
<path d="M43.271 8.99976C41.7124 8.99976 40.1805 9.2714 38.7066 9.81468C38.245 9.98353 37.8506 10.2974 37.5825 10.7092C37.3144 11.1211 37.1869 11.6087 37.2192 12.0991C37.237 12.3441 37.6467 18.1198 39.8243 23.94C42.0019 29.7691 45.1235 33.8526 45.2571 34.0263C45.5511 34.4094 45.9598 34.6886 46.4236 34.8232C46.8874 34.9578 47.3821 34.9407 47.8355 34.7744C54.7155 32.254 58.2647 24.608 55.7487 17.7279C53.8383 12.5088 48.8241 8.99976 43.271 8.99976Z" fill="#FCC21B"/>
<path d="M26.3046 1.45618C24.51 1.45618 22.7555 1.81689 21.0945 2.52493C17.8303 3.91431 15.3054 6.49712 13.9784 9.79243C12.6558 13.0877 12.6959 16.6948 14.0897 19.9589C14.4459 20.805 15.2787 21.3394 16.1782 21.3394C16.2539 21.3394 16.3252 21.3349 16.3964 21.3305C16.6146 21.3082 21.7268 20.7917 27.4713 18.387C33.2025 15.9912 37.6957 12.3352 37.8827 12.1793C38.2633 11.8676 38.5322 11.4405 38.6487 10.9625C38.7651 10.4845 38.7229 9.98159 38.5284 9.5297C37.5083 7.13274 35.8052 5.08905 33.6315 3.65337C31.4578 2.2177 28.9096 1.45355 26.3046 1.45618Z" fill="#FCC21B"/>
<path d="M34.5251 22.2611C34.4805 22.0429 34.3291 21.8648 34.1332 21.7802L32.4633 21.0543C32.2273 20.9519 31.9556 20.992 31.7597 21.1478C31.5593 21.3126 31.4702 21.5709 31.5237 21.8203C31.5237 21.8292 31.733 22.9202 31.1229 23.8331C30.682 24.4877 29.9072 24.9152 28.8162 25.1067C25.9127 25.6188 25.5876 27.5024 25.3561 28.874C25.1334 30.1743 24.9776 30.7577 23.6594 30.8824C22.1944 31.0204 21.1167 31.5682 20.4532 32.5122C19.3889 34.0174 19.8565 35.9456 19.8743 36.0257C19.9233 36.2306 20.0702 36.3998 20.2662 36.4844L21.9361 37.2103C22.0251 37.2503 22.1187 37.2682 22.2077 37.2682C22.3109 37.2684 22.4129 37.2451 22.5058 37.2001C22.5987 37.1552 22.6802 37.0897 22.7441 37.0086C22.808 36.9276 22.8526 36.8331 22.8747 36.7322C22.8967 36.6314 22.8955 36.5268 22.8712 36.4265C22.8712 36.4132 22.5417 35.0104 23.2453 34.0218C23.6728 33.4251 24.4165 33.0689 25.463 32.9709C27.881 32.7393 28.166 31.0605 28.3753 29.8359C28.598 28.5445 28.7672 27.5247 30.7265 27.1818C32.1961 26.9235 33.2737 26.3001 33.9283 25.3249C34.8635 23.9177 34.5429 22.3279 34.5251 22.2611Z" fill="#ED6C30"/>
<path d="M39.8243 41.6545C38.8001 40.8128 38.996 40.2473 39.5348 39.0405C40.1093 37.7714 40.893 36.0257 38.7645 33.9818C37.9718 33.2203 37.5666 32.4321 37.5621 31.6483C37.5532 30.5395 38.3459 29.7468 38.3503 29.7379C38.5329 29.5598 38.5997 29.2971 38.5284 29.0521C38.4527 28.8072 38.2523 28.6246 37.9985 28.5801L36.2084 28.2506C35.9946 28.2105 35.7719 28.2773 35.6116 28.4287C35.5671 28.4777 34.4048 29.6177 34.4093 31.3054C34.4093 32.4766 34.9615 33.5943 36.0302 34.6319C37.4641 36.0079 37.0411 36.952 36.5023 38.1499C35.9946 39.2854 35.2955 40.8351 37.1702 42.3759C37.9852 43.0439 38.4082 43.7519 38.426 44.4867C38.4616 45.7024 37.4062 46.6821 37.3973 46.6865C37.2014 46.8602 37.1301 47.1318 37.1969 47.3768C37.2682 47.6306 37.473 47.8176 37.7313 47.8621L39.5215 48.1917C39.5616 48.2006 39.6016 48.205 39.6417 48.205C39.8065 48.205 39.9712 48.1427 40.1004 48.0314C40.1627 47.9735 41.6278 46.6375 41.5833 44.7939C41.5476 43.645 40.9598 42.5896 39.8243 41.6545ZM30.0898 41.3873C31.0784 39.6728 30.5351 38.1499 30.5128 38.0831C30.446 37.905 30.308 37.758 30.1254 37.6912L28.5312 37.05C28.2862 36.952 28.0012 37.0054 27.8098 37.1925C27.6183 37.375 27.547 37.66 27.6361 37.9139C27.6494 37.9539 27.9745 38.9292 27.3155 40.0647C27.0127 40.5813 26.6297 40.7728 26.1398 41.0132C25.5832 41.2849 24.8885 41.6233 24.4699 42.5228C24.078 43.36 24.1805 44.1705 24.2651 44.8875C24.3452 45.5421 24.412 46.1032 24.1448 46.6598C23.8643 47.2565 23.3834 47.5549 22.8267 47.9022C22.2745 48.2451 21.6511 48.6325 21.2013 49.3495C20.8184 49.9596 20.7738 50.6543 20.7293 51.3311C20.6536 52.4311 20.5645 53.1302 19.6071 53.62C19.3711 53.7403 19.2241 53.9896 19.233 54.2568C19.2464 54.524 19.4112 54.76 19.6605 54.858L21.2548 55.4993C21.3349 55.5349 21.424 55.5482 21.5086 55.5482C21.6155 55.5482 21.7179 55.5215 21.8159 55.4725C23.508 54.6131 23.6105 53.1391 23.6773 52.0614C23.7129 51.5315 23.7441 51.0328 23.9489 50.7166C24.2294 50.2624 24.6569 50.0041 25.1423 49.6968C25.788 49.2916 26.5139 48.8418 26.9681 47.8844C27.4045 46.9671 27.3021 46.1121 27.2041 45.3595C27.1284 44.7494 27.0661 44.2195 27.2932 43.7386C27.498 43.2932 27.7875 43.1374 28.3263 42.8746C28.8919 42.5986 29.5866 42.2646 30.0898 41.3873ZM10.6207 33.7502C11.3777 33.7235 12.2372 33.6878 13.1055 33.0822C13.9383 32.4989 14.2678 31.7107 14.5662 31.0071C14.8066 30.4371 15.0115 29.9472 15.4479 29.64C15.8932 29.3282 16.3073 29.3728 16.7705 29.4039C16.953 29.4173 17.1401 29.4262 17.3227 29.4262C17.7279 29.4262 18.3424 29.3817 19.0327 28.9809C20.7427 27.9878 21.0232 26.3892 21.0366 26.3224C21.0677 26.1353 21.0143 25.9394 20.8985 25.788L19.8298 24.4387C19.665 24.2294 19.3844 24.1359 19.1262 24.2027C18.8679 24.2695 18.6719 24.4832 18.6274 24.7504C18.623 24.7593 18.427 25.788 17.2826 26.4515C16.9664 26.6386 16.668 26.7143 16.2584 26.7143C16.1025 26.7143 15.9466 26.7053 15.7908 26.6964C15.6126 26.6831 15.439 26.6742 15.2609 26.6742C14.8155 26.6742 14.2277 26.7321 13.5954 27.1818C12.8384 27.7162 12.5266 28.4688 12.2461 29.1368C11.9923 29.7424 11.7696 30.2634 11.2619 30.6196C10.7231 30.9937 10.1576 31.016 9.50296 31.0427C8.85726 31.0694 8.12249 31.0961 7.37437 31.4969C6.74203 31.8398 6.3546 32.4187 5.98499 32.9798C5.39718 33.8704 4.98749 34.4137 4.00781 34.4137L3.87421 34.4093C3.61593 34.3959 3.35765 34.5384 3.23296 34.7789C3.11273 35.0149 3.13945 35.3043 3.30867 35.5136L4.37742 36.8629C4.5021 37.0143 4.68468 37.1078 4.87617 37.1168C4.94296 37.1212 5.00976 37.1257 5.07656 37.1257C6.83554 37.1257 7.61929 35.9456 8.18929 35.0817C8.47874 34.6408 8.75929 34.2222 9.08882 34.0441C9.54749 33.7903 10.0462 33.7725 10.6207 33.7502Z" fill="#D7598B"/>
<path d="M17.0198 39.2766V37.1791C17.0198 36.8006 16.7126 36.4978 16.3385 36.4978H14.2366C13.8626 36.4978 13.5553 36.8006 13.5553 37.1791V39.2766C13.5553 39.6551 13.8581 39.9579 14.2366 39.9579H16.3385C16.717 39.9579 17.0198 39.6506 17.0198 39.2766Z" fill="#ED6C30"/>
<path d="M8.67913 22.898L7.19624 24.3809C6.92905 24.6481 6.92905 25.0801 7.19624 25.3428L8.67913 26.8301C8.81272 26.9593 8.9864 27.0305 9.16007 27.0305C9.33819 27.0305 9.51187 26.9637 9.64101 26.8301L11.1283 25.3428C11.3955 25.0756 11.3955 24.6481 11.1283 24.3809L9.64101 22.898C9.37382 22.6308 8.94187 22.6308 8.67913 22.898Z" fill="#40C0E7"/>
<path d="M4.53771 27.1329C4.66685 27.0037 4.7381 26.8345 4.7381 26.6519C4.7381 26.4738 4.66685 26.3001 4.53771 26.171L3.05037 24.6837C2.79654 24.4298 2.34232 24.4298 2.08849 24.6837L0.605601 26.171C0.47646 26.3001 0.400757 26.4738 0.400757 26.6519C0.400757 26.8345 0.47646 27.0037 0.605601 27.1329L2.08849 28.6158C2.15152 28.6792 2.22646 28.7295 2.30899 28.7638C2.39153 28.7981 2.48004 28.8158 2.56943 28.8158C2.65882 28.8158 2.74733 28.7981 2.82986 28.7638C2.9124 28.7295 2.98734 28.6792 3.05037 28.6158L4.53771 27.1329Z" fill="#ED6C30"/>
<path d="M12.1704 41.4141C11.9165 41.1558 11.4623 41.1558 11.204 41.4141L9.72114 42.897C9.45396 43.1642 9.45396 43.5961 9.72114 43.8633L11.204 45.3462C11.2671 45.4096 11.342 45.4599 11.4245 45.4942C11.5071 45.5285 11.5956 45.5462 11.685 45.5462C11.7744 45.5462 11.8629 45.5285 11.9454 45.4942C12.0279 45.4599 12.1029 45.4096 12.1659 45.3462L13.6488 43.8633C13.916 43.5961 13.916 43.1642 13.6488 42.897L12.1704 41.4141ZM30.535 49.8349C30.2679 49.5677 29.8359 49.5677 29.5687 49.8349L28.1749 51.2288C27.9077 51.4959 27.9077 51.9279 28.1749 52.1951L29.5687 53.5889C29.6317 53.6523 29.7067 53.7026 29.7892 53.7369C29.8718 53.7713 29.9603 53.7889 30.0497 53.7889C30.139 53.7889 30.2276 53.7713 30.3101 53.7369C30.3926 53.7026 30.4676 53.6523 30.5306 53.5889L31.9244 52.1951C32.1916 51.9279 32.1916 51.4959 31.9244 51.2288L30.535 49.8349ZM49.4118 40.4834C49.4749 40.5468 49.5498 40.5971 49.6323 40.6314C49.7149 40.6657 49.8034 40.6834 49.8928 40.6834C49.9822 40.6834 50.0707 40.6657 50.1532 40.6314C50.2358 40.5971 50.3107 40.5468 50.3737 40.4834L51.772 39.0895C52.0347 38.8224 52.0347 38.3949 51.772 38.1277L50.3737 36.7338C50.1065 36.4667 49.6746 36.4667 49.4118 36.7338L48.018 38.1277C47.7508 38.3949 47.7508 38.8224 48.018 39.0895L49.4118 40.4834ZM45.0745 50.1288C44.8118 49.8617 44.3754 49.8617 44.1082 50.1288L42.7143 51.5227C42.4516 51.7899 42.4516 52.2218 42.7143 52.489L44.1082 53.8828C44.2418 54.012 44.4199 54.0832 44.5936 54.0832C44.7672 54.0832 44.9409 54.0164 45.0745 53.8828L46.4683 52.489C46.7355 52.2218 46.7355 51.7899 46.4683 51.5227L45.0745 50.1288ZM19.7852 46.6064V44.509C19.7852 44.1349 19.4779 43.8277 19.1039 43.8277H17.002C16.6235 43.8277 16.3207 44.1349 16.3207 44.509V46.6064C16.3207 46.9849 16.6235 47.2877 17.002 47.2877H19.1039C19.4779 47.2877 19.7852 46.9805 19.7852 46.6064Z" fill="#40C0E7"/>
<path d="M32.4633 43.89H30.4905C30.1165 43.89 29.8092 44.1928 29.8092 44.5713V46.5441C29.8092 46.9181 30.1165 47.2254 30.4905 47.2254H32.4633C32.8373 47.2254 33.1446 46.9181 33.1446 46.5441V44.5713C33.1446 44.1928 32.8418 43.89 32.4633 43.89ZM11.7518 48.9977H9.6499C9.27583 48.9977 8.96857 49.305 8.96857 49.6791V51.7765C8.96857 52.1506 9.27583 52.4578 9.6499 52.4578H11.7518C12.1303 52.4578 12.4331 52.1506 12.4331 51.7765V49.6791C12.4331 49.3006 12.1303 48.9977 11.7518 48.9977Z" fill="#ED6C30"/>
<path d="M5.6822 42.8969C5.41947 42.6297 4.98752 42.6297 4.72033 42.8969L3.23744 44.3843C3.10385 44.5134 3.03705 44.6826 3.03705 44.8652C3.03705 45.0478 3.1083 45.2215 3.23744 45.3461L4.72033 46.829C4.78336 46.8924 4.85829 46.9427 4.94083 46.9771C5.02337 47.0114 5.11188 47.029 5.20127 47.029C5.29066 47.029 5.37917 47.0114 5.4617 46.9771C5.54424 46.9427 5.61918 46.8924 5.6822 46.829L7.1651 45.3461C7.43228 45.079 7.43228 44.647 7.1651 44.3843L5.6822 42.8969Z" fill="#40C0E7"/>
<path d="M2.48039 18.8679C3.33539 19.1217 4.275 18.9302 5.01422 18.7209C5.60203 18.5561 6.15422 18.4225 6.6307 18.565C7.10273 18.6986 7.30312 18.9658 7.64156 19.4557C7.99336 19.9633 8.42976 20.5957 9.37383 20.9653C9.89039 21.1657 10.4248 21.2725 10.9547 21.2725C11.115 21.2725 11.262 21.2636 11.4045 21.2503C11.7384 21.2147 12.0012 20.9341 12.0145 20.6001L12.0769 18.9436C12.0858 18.761 12.0012 18.5784 11.872 18.4448C11.7429 18.3112 11.547 18.2355 11.3644 18.2355C10.9814 18.2355 10.6207 18.1687 10.2645 18.0262C9.70781 17.808 9.46289 17.4562 9.15562 17.0064C8.79937 16.4943 8.35851 15.862 7.41 15.5815C6.62179 15.3499 5.7757 15.528 5.04539 15.7329C4.41304 15.911 3.81633 16.049 3.26859 15.8843C2.9257 15.7818 2.63625 15.5993 2.32008 15.2831C2.16867 15.1406 1.95492 15.0649 1.75008 15.0961C1.54078 15.1228 1.3582 15.2475 1.25133 15.43L0.494295 16.7214C0.347341 16.9753 0.37406 17.2915 0.569998 17.5141C1.01531 18.0218 1.57195 18.5918 2.48039 18.8679ZM56.2741 49.9106C56.1361 49.826 56.0203 49.8171 55.8912 49.7993C54.4884 49.6523 53.2727 49.1803 52.3732 48.4589C54.3415 47.4881 55.1163 45.6089 55.0139 44.4644C55.0139 44.4199 55.0095 44.362 55.0005 44.3041C54.8536 42.652 53.8383 41.5877 52.4133 41.5877C52.0615 41.5877 51.6874 41.65 51.2733 41.7747C50.7523 41.9306 49.2471 42.3893 48.4545 45.453C47.4614 44.7494 46.6598 43.6361 46.1566 42.229C46.1121 42.0998 46.0765 41.9929 45.9607 41.8816C45.7069 41.6278 45.2571 41.6278 44.9988 41.8816L43.5248 43.36C43.271 43.6139 43.2577 44.0147 43.4892 44.2818C43.4224 44.2017 43.3957 44.1438 43.4002 44.1616C44.3709 46.9047 46.2947 48.6815 48.6994 49.0823C49.6835 51.2465 51.8299 52.6448 54.7066 52.9476C54.7512 52.9565 54.7912 52.9565 54.8358 52.9565C55.0629 52.9565 55.29 52.8407 55.4191 52.6315L56.5057 50.8547C56.6927 50.5251 56.5903 50.1065 56.2741 49.9106ZM51.8967 45.5866C51.5716 45.7647 51.2466 45.9117 50.966 46.0186C50.9482 45.7157 50.9482 45.3506 50.9927 44.9765C51.0284 44.5179 51.5984 44.0102 52.0837 44.0102C52.204 44.0102 52.3109 44.0414 52.4044 44.1037C52.5914 44.224 52.6983 44.4288 52.6894 44.6425C52.676 44.9765 52.3955 45.3105 51.8967 45.5866Z" fill="#ED6C30"/>
</svg>
