<svg width="31" height="31" viewBox="0 0 31 31" fill="none" xmlns="http://www.w3.org/2000/svg">
<path d="M9.04175 23.25C7.62091 23.25 6.47133 24.4125 6.47133 25.8333C6.47133 27.2542 7.62091 28.4167 9.04175 28.4167C10.4626 28.4167 11.6251 27.2542 11.6251 25.8333C11.6251 24.4125 10.4626 23.25 9.04175 23.25ZM1.29175 3.87499C1.29175 4.5854 1.873 5.16665 2.58341 5.16665H3.87508L8.52508 14.9704L6.78133 18.1221C5.83842 19.8529 7.07841 21.9583 9.04175 21.9583H23.2501C23.9605 21.9583 24.5417 21.3771 24.5417 20.6667C24.5417 19.9562 23.9605 19.375 23.2501 19.375H9.04175L10.4626 16.7917H20.0855C21.0542 16.7917 21.9067 16.2621 22.3459 15.4612L26.9701 7.07832C27.0789 6.88254 27.1348 6.66172 27.1321 6.43773C27.1294 6.21373 27.0683 5.99432 26.9548 5.8012C26.8412 5.60808 26.6793 5.44795 26.4849 5.33666C26.2904 5.22537 26.0703 5.16677 25.8463 5.16665H6.72967L5.86425 3.31957C5.76082 3.0988 5.59644 2.9122 5.39047 2.78175C5.18451 2.65131 4.94554 2.58246 4.70175 2.58332H2.58341C1.873 2.58332 1.29175 3.16457 1.29175 3.87499ZM21.9584 23.25C20.5376 23.25 19.388 24.4125 19.388 25.8333C19.388 27.2542 20.5376 28.4167 21.9584 28.4167C23.3792 28.4167 24.5417 27.2542 24.5417 25.8333C24.5417 24.4125 23.3792 23.25 21.9584 23.25Z" fill="white"/>
</svg>
